<?xml version="1.0" encoding="UTF-8"?>
<svg version="1.1" xmlns="http://www.w3.org/2000/svg" width="128" height="128">
<path d="M0 0 C3.49659172 2.39900359 6.22270809 5.3690112 9.0625 8.5 C9.83271484 9.31082031 10.60292969 10.12164062 11.39648438 10.95703125 C13.2863358 12.95252654 15.15199308 14.96582397 17 17 C17.2784375 16.39542969 17.556875 15.79085938 17.84375 15.16796875 C19.70740048 11.6736241 22.44413193 8.77793404 26 7 C30.23390162 6.59289407 32.51588352 6.74424035 36.3125 8.75 C40.14548121 11.95900752 40.86145318 13.47598502 41.3125 18.4375 C40.97901109 22.23927362 40.30848661 24.00751736 38 27 C35 29 35 29 31 29 C33.86010317 34.64577986 38.49460635 38.43267182 43.16992188 42.56445312 C46.37040253 45.58471902 48.43362798 47.66376159 48.61328125 52.19921875 C48.00265289 55.98355886 47.64249812 57.35750188 45 60 C44.36449219 60.6496875 43.72898437 61.299375 43.07421875 61.96875 C42.38972656 62.6390625 41.70523438 63.309375 41 64 C40.30519531 64.7528125 39.61039062 65.505625 38.89453125 66.28125 C34.93813939 70.49744246 34.93813939 70.49744246 33 72 C31.68 72 30.36 72 29 72 C28.566875 71.05125 28.13375 70.1025 27.6875 69.125 C26.20697799 65.79958063 26.20697799 65.79958063 23 64 C19.63812807 64.18010028 17.00081858 64.41887954 14.0625 66.125 C12.35449157 69.13913252 12.63795186 71.62088399 13 75 C14.95439177 77.88015629 18.0057611 79.30056711 21 81 C20.43497819 84.81806367 18.80303051 86.57136665 16.10546875 89.2578125 C15.31462891 90.04800781 14.52378906 90.83820313 13.70898438 91.65234375 C12.46084961 92.87630859 12.46084961 92.87630859 11.1875 94.125 C10.36701172 94.94871094 9.54652344 95.77242188 8.70117188 96.62109375 C-0.01902171 105.26349161 -0.01902171 105.26349161 -6.375 105.375 C-7.10460938 105.40335937 -7.83421875 105.43171875 -8.5859375 105.4609375 C-15.89290598 104.06575582 -21.3540295 97.01296258 -26.375 92 C-27.20644531 91.19304687 -28.03789063 90.38609375 -28.89453125 89.5546875 C-29.67957031 88.77351563 -30.46460937 87.99234375 -31.2734375 87.1875 C-31.98935059 86.47980469 -32.70526367 85.77210937 -33.44287109 85.04296875 C-35 83 -35 83 -35 79 C-33.576875 78.319375 -33.576875 78.319375 -32.125 77.625 C-28.99686321 76.19761746 -28.99686321 76.19761746 -27 74 C-26.57687564 70.19188078 -26.50779837 67.85600283 -28.4375 64.5 C-32.31796664 62.22850733 -35.71897773 63.15843152 -40 64 C-40.309375 64.94875 -40.61875 65.8975 -40.9375 66.875 C-42 70 -42 70 -43 72 C-48.72737316 70.43798914 -53.11697518 66.05758485 -56.18359375 61.078125 C-57.13629722 58.65306162 -57.33445646 56.72789508 -57.375 54.125 C-57.40335938 53.30257812 -57.43171875 52.48015625 -57.4609375 51.6328125 C-56.31570642 45.09140788 -50.82191326 40.56628716 -46.25 36.125 C-45.64800781 35.53203125 -45.04601562 34.9390625 -44.42578125 34.328125 C-42.95508055 32.88076876 -41.4781733 31.4397237 -40 30 C-40.94101562 29.55011719 -41.88203125 29.10023437 -42.8515625 28.63671875 C-46.4182646 26.78256468 -47.9907701 25.47751328 -50 22 C-50.72415958 16.93088294 -50.58448566 15.03699068 -48.0625 10.5625 C-44.12136552 7.26481605 -41.07900568 6.59367955 -36 7 C-32.23397633 8.55553152 -30.1480349 10.56314416 -28 14 C-27.67 14.99 -27.34 15.98 -27 17 C-26.2886792 16.28082397 -26.2886792 16.28082397 -25.56298828 15.54711914 C-23.41959665 13.38298162 -21.2723561 11.22270353 -19.125 9.0625 C-18.37863281 8.30775391 -17.63226563 7.55300781 -16.86328125 6.77539062 C-16.14785156 6.05673828 -15.43242188 5.33808594 -14.6953125 4.59765625 C-14.03547363 3.93258057 -13.37563477 3.26750488 -12.69580078 2.58227539 C-9.01498844 -0.85212495 -4.7839365 -1.08195873 0 0 Z " fill="#E15245" transform="translate(69,12)"/>
<path d="M0 0 C4.55069389 3.37227729 8.27583243 7.76541352 12 12 C9.58600932 17.33294881 5.75867605 21.56834195 2 26 C1.56042969 26.58136719 1.12085938 27.16273437 0.66796875 27.76171875 C-1.85093578 30.55250504 -4.07099471 31.00561075 -7.70703125 31.29296875 C-11.4826817 31.36001593 -15.23077137 31.21579553 -19 31 C-18.91878906 32.01320312 -18.83757813 33.02640625 -18.75390625 34.0703125 C-18.15067774 44.80135972 -18.15067774 44.80135972 -20.453125 48.05078125 C-21.68309295 48.96808928 -22.94455286 49.84473731 -24.234375 50.67578125 C-27.50401154 53.12800865 -28.06047014 56.11660993 -29 60 C-28.16338036 62.89014058 -27.13191816 63.86808184 -25 66 C-24.8046875 68.3828125 -24.8046875 68.3828125 -24.875 71.125 C-24.89304688 72.03507812 -24.91109375 72.94515625 -24.9296875 73.8828125 C-24.95289063 74.58148438 -24.97609375 75.28015625 -25 76 C-25.66 76 -26.32 76 -27 76 C-27 76.66 -27 77.32 -27 78 C-29.64738916 79.4606285 -30.89448334 80 -34 80 C-34.33 80.99 -34.66 81.98 -35 83 C-35 81.68 -35 80.36 -35 79 C-33.576875 78.319375 -33.576875 78.319375 -32.125 77.625 C-28.99686321 76.19761746 -28.99686321 76.19761746 -27 74 C-26.57687564 70.19188078 -26.50779837 67.85600283 -28.4375 64.5 C-32.31796664 62.22850733 -35.71897773 63.15843152 -40 64 C-40.309375 64.94875 -40.61875 65.8975 -40.9375 66.875 C-42 70 -42 70 -43 72 C-48.72737316 70.43798914 -53.11697518 66.05758485 -56.18359375 61.078125 C-57.13629722 58.65306162 -57.33445646 56.72789508 -57.375 54.125 C-57.40335938 53.30257812 -57.43171875 52.48015625 -57.4609375 51.6328125 C-56.31570642 45.09140788 -50.82191326 40.56628716 -46.25 36.125 C-45.64800781 35.53203125 -45.04601562 34.9390625 -44.42578125 34.328125 C-42.95508055 32.88076876 -41.4781733 31.4397237 -40 30 C-40.94101562 29.55011719 -41.88203125 29.10023437 -42.8515625 28.63671875 C-46.4182646 26.78256468 -47.9907701 25.47751328 -50 22 C-50.72415958 16.93088294 -50.58448566 15.03699068 -48.0625 10.5625 C-44.12136552 7.26481605 -41.07900568 6.59367955 -36 7 C-32.23397633 8.55553152 -30.1480349 10.56314416 -28 14 C-27.67 14.99 -27.34 15.98 -27 17 C-26.2886792 16.28082397 -26.2886792 16.28082397 -25.56298828 15.54711914 C-23.41959665 13.38298162 -21.2723561 11.22270353 -19.125 9.0625 C-18.37863281 8.30775391 -17.63226563 7.55300781 -16.86328125 6.77539062 C-16.14785156 6.05673828 -15.43242188 5.33808594 -14.6953125 4.59765625 C-14.03547363 3.93258057 -13.37563477 3.26750488 -12.69580078 2.58227539 C-9.01988861 -0.84755282 -4.71861864 -1.43786233 0 0 Z " fill="#498AEA" transform="translate(69,12)"/>
<path d="M0 0 C3.08193978 1.6281946 5.26420667 3.03009062 7.375 5.8125 C8.61245226 10.14358292 8.59749517 13.71965322 6.6875 17.8125 C5 20 5 20 2 22 C0.68 22 -0.64 22 -2 22 C0.86010317 27.64577986 5.49460635 31.43267182 10.16992188 35.56445312 C13.39169983 38.6048171 15.43171697 40.66322719 15.58203125 45.23046875 C14.80699425 50.25000371 13.48947075 51.51052925 10 55 C10 51.48283697 10.82445585 50.62878252 13 48 C12.32195312 48.06960937 11.64390625 48.13921875 10.9453125 48.2109375 C2.84311985 48.68225619 -1.46580622 46.54821047 -8 42 C-9.74053716 40.90152766 -11.49048383 39.81780802 -13.25 38.75 C-14.40242188 38.03070313 -14.40242188 38.03070313 -15.578125 37.296875 C-21.57982238 34.08306286 -26.72178451 33.73705454 -33.375 33.875 C-34.62216797 33.88853516 -34.62216797 33.88853516 -35.89453125 33.90234375 C-37.92981337 33.9257378 -39.96494564 33.96160275 -42 34 C-42 36.64 -42 39.28 -42 42 C-40.71222656 41.98839844 -39.42445312 41.97679687 -38.09765625 41.96484375 C-36.41927228 41.9554673 -34.74088674 41.94636695 -33.0625 41.9375 C-31.78729492 41.92493164 -31.78729492 41.92493164 -30.48632812 41.91210938 C-29.67744141 41.90888672 -28.86855469 41.90566406 -28.03515625 41.90234375 C-27.2862915 41.89710693 -26.53742676 41.89187012 -25.76586914 41.88647461 C-24 42 -24 42 -23 43 C-23 45.31 -23 47.62 -23 50 C-29.6 50 -36.2 50 -43 50 C-43 55.61 -43 61.22 -43 67 C-45.97 67 -48.94 67 -52 67 C-52 52.81 -52 38.62 -52 24 C-47.05 23.67 -42.1 23.34 -37 23 C-33.38338725 20.60590424 -31.61171475 19.20035068 -29 16 C-28.25621094 15.113125 -27.51242188 14.22625 -26.74609375 13.3125 C-24.78221565 10.90803011 -22.87290184 8.47561759 -21 6 C-19.02 7.32 -17.04 8.64 -15 10 C-14.608125 8.906875 -14.21625 7.81375 -13.8125 6.6875 C-12.66668641 4.05479343 -11.98824556 2.98987812 -9.75 1.0625 C-6.19760914 -0.31001465 -3.78601557 -0.46494928 0 0 Z " fill="#F7BE2A" transform="translate(102,19)"/>
<path d="M0 0 C2.35967115 1.17728733 4.71345477 2.36400754 7.0625 3.5625 C11.8253339 5.62154173 16.87641785 5.73131305 22 6 C22.43423083 9.10164875 22.59010549 11.91212042 22 15 C20.41181161 16.8059239 18.7049328 18.04977973 16.765625 19.46484375 C13.63345067 22.18817232 12.96469393 25.01259844 12 29 C12.83661964 31.89014058 13.86808184 32.86808184 16 35 C16.1953125 37.3828125 16.1953125 37.3828125 16.125 40.125 C16.10695312 41.03507812 16.08890625 41.94515625 16.0703125 42.8828125 C16.04710937 43.58148438 16.02390625 44.28015625 16 45 C15.34 45 14.68 45 14 45 C14 45.66 14 46.32 14 47 C11.35261084 48.4606285 10.10551666 49 7 49 C6.67 49.99 6.34 50.98 6 52 C6 50.68 6 49.36 6 48 C7.423125 47.319375 7.423125 47.319375 8.875 46.625 C12.00313679 45.19761746 12.00313679 45.19761746 14 43 C14.42312436 39.19188078 14.49220163 36.85600283 12.5625 33.5 C8.68203336 31.22850733 5.28102227 32.15843152 1 33 C0.690625 33.94875 0.38125 34.8975 0.0625 35.875 C-1 39 -1 39 -2 41 C-7.72737316 39.43798914 -12.11697518 35.05758485 -15.18359375 30.078125 C-16.13629722 27.65306162 -16.33445646 25.72789508 -16.375 23.125 C-16.40335938 22.30257812 -16.43171875 21.48015625 -16.4609375 20.6328125 C-15.35260079 14.3021435 -10.18537635 9.92243402 -5.75 5.625 C-5.19570313 5.07972656 -4.64140625 4.53445312 -4.0703125 3.97265625 C-2.71811269 2.64377023 -1.3596965 1.32121452 0 0 Z " fill="#44A567" transform="translate(28,43)"/>
<path d="M0 0 C10.23 0 20.46 0 31 0 C31 2.31 31 4.62 31 7 C23.74 7 16.48 7 9 7 C9 10.96 9 14.92 9 19 C15.6 19 22.2 19 29 19 C29 21.31 29 23.62 29 26 C22.4 26 15.8 26 9 26 C9 31.61 9 37.22 9 43 C6.03 43 3.06 43 0 43 C0 28.81 0 14.62 0 0 Z " fill="#FCFAF8" transform="translate(50,43)"/>
<path d="M0 0 C3.08193978 1.6281946 5.26420667 3.03009062 7.375 5.8125 C8.28829727 9.00904045 8.29508006 11.69510332 8 15 C6.48046875 17.21875 6.48046875 17.21875 5 19 C5.06960937 17.64455078 5.06960937 17.64455078 5.140625 16.26171875 C5.17671875 15.08222656 5.2128125 13.90273438 5.25 12.6875 C5.31960937 10.92986328 5.31960937 10.92986328 5.390625 9.13671875 C5.30538484 5.95698548 5.30538484 5.95698548 3.234375 4.1015625 C-0.88941272 2.06850631 -4.98682742 2.52319597 -9.375 3.5625 C-11.972847 5.86059543 -12.26859466 8.70867598 -13 12 C-17.31392226 11.5206753 -19.16569547 10.2542015 -22 7 C-18.48283697 7 -17.62878252 7.82445585 -15 10 C-14.608125 8.906875 -14.21625 7.81375 -13.8125 6.6875 C-12.66668641 4.05479343 -11.98824556 2.98987812 -9.75 1.0625 C-6.19760914 -0.31001465 -3.78601557 -0.46494928 0 0 Z " fill="#DAC474" transform="translate(102,19)"/>
<path d="M0 0 C1.22589844 0.01353516 1.22589844 0.01353516 2.4765625 0.02734375 C3.41628906 0.04474609 3.41628906 0.04474609 4.375 0.0625 C4.375 0.3925 4.375 0.7225 4.375 1.0625 C3.72273438 1.1140625 3.07046875 1.165625 2.3984375 1.21875 C-3.08682532 1.88930062 -3.08682532 1.88930062 -7.51953125 4.94140625 C-8.51906326 6.35593383 -9.47367282 7.80374199 -10.37109375 9.28515625 C-11.625 11.0625 -11.625 11.0625 -14.625 12.0625 C-15.32651152 13.3778341 -15.99025925 14.71367592 -16.625 16.0625 C-17.9375 17.8125 -17.9375 17.8125 -19.625 19.0625 C-22.3125 19.25 -22.3125 19.25 -24.625 19.0625 C-24.295 17.7425 -23.965 16.4225 -23.625 15.0625 C-23.295 15.7225 -22.965 16.3825 -22.625 17.0625 C-22.15078613 16.58304932 -21.67657227 16.10359863 -21.18798828 15.60961914 C-19.04459665 13.44548162 -16.8973561 11.28520353 -14.75 9.125 C-14.00363281 8.37025391 -13.25726563 7.61550781 -12.48828125 6.83789062 C-11.77285156 6.11923828 -11.05742188 5.40058594 -10.3203125 4.66015625 C-9.66047363 3.99508057 -9.00063477 3.33000488 -8.32080078 2.64477539 C-5.5239233 0.03513489 -3.72114669 -0.05315924 0 0 Z " fill="#7A9DCB" transform="translate(64.625,11.9375)"/>
<path d="M0 0 C2.5625 2.0625 2.5625 2.0625 4 4 C3.67 4.66 3.34 5.32 3 6 C2.505 5.34 2.01 4.68 1.5 4 C-1.37990523 1.69607582 -3.36733603 1.37024903 -7.03515625 1.52734375 C-10.27403411 2.30647739 -11.9068491 4.53746953 -14 7 C-14.66 7 -15.32 7 -16 7 C-15.690625 8.0725 -15.38125 9.145 -15.0625 10.25 C-14.33187904 12.82866222 -13.62517096 15.39512102 -13 18 C-16.31163065 15.51627701 -16.95627414 14.30122257 -17.5625 10.125 C-17.33128545 5.36731592 -15.38546865 3.22800499 -12 0 C-7.84595154 -1.38468282 -4.23575387 -1.02453252 0 0 Z " fill="#7295C5" transform="translate(36,20)"/>
<path d="M0 0 C0 8.91 0 17.82 0 27 C-0.33 27 -0.66 27 -1 27 C-1.33 19.41 -1.66 11.82 -2 4 C-3.65 5.32 -5.3 6.64 -7 8 C-7 5 -7 5 -4.625 2.3125 C-2 0 -2 0 0 0 Z " fill="#DA5E54" transform="translate(50,58)"/>
<path d="M0 0 C-0.54161908 3.79133356 -1.99283725 5.66109564 -5 8 C-7.75 8.25 -7.75 8.25 -10 8 C-9.67 6.68 -9.34 5.36 -9 4 C-8.67 4.66 -8.34 5.32 -8 6 C-7.59007812 5.566875 -7.18015625 5.13375 -6.7578125 4.6875 C-6.21898437 4.130625 -5.68015625 3.57375 -5.125 3 C-4.59132813 2.443125 -4.05765625 1.88625 -3.5078125 1.3125 C-2 0 -2 0 0 0 Z " fill="#7EA5D9" transform="translate(50,23)"/>
<path d="M0 0 C0.66 0.33 1.32 0.66 2 1 C-2.625 6.875 -2.625 6.875 -6 8 C-4.55746343 4.63408134 -2.66735273 2.48952921 0 0 Z " fill="#B66447" transform="translate(48,58)"/>
<path d="M0 0 C-3 2 -3 2 -7 2 C-7.33 2.99 -7.66 3.98 -8 5 C-8.33 3.68 -8.66 2.36 -9 1 C-3.375 -1.125 -3.375 -1.125 0 0 Z " fill="#DCC676" transform="translate(107,39)"/>
</svg>
