<?xml version="1.0" encoding="UTF-8"?>
<svg xmlns="http://www.w3.org/2000/svg" version="1.1" viewBox="0 0 7000 7000">
  <!-- Generator: Adobe Illustrator 28.7.7, SVG Export Plug-In . SVG Version: 1.2.0 Build 194)  -->
  <g>
    <g id="Layer_1">
      <rect width="7000" height="7000" style="fill: none;"/>
      <path d="M3240.998,1556.327l-66.971,589.402c26.788-6.394,53.845-12.048,81.172-16.894,79.555-14.134,161.2-21.471,244.39-21.471s164.835,7.337,244.39,21.471c27.327,4.846,54.384,10.5,81.172,16.894l-66.971-589.402h-517.181ZM2951.916,2278.12l105.403-927.885h884.539l124.182,1093.324-156.487-57.547c-64.345-23.692-131.583-41.999-200.976-54.316-67.642-11.981-137.439-18.24-208.985-18.24s-141.343,6.259-208.985,18.24c-69.393,12.317-136.631,30.624-200.976,54.316l-156.487,57.547,18.779-165.439h-.007Z"/>
      <path d="M5054.095,2304.034l-544.711,237.12c18.913,19.923,37.288,40.519,55.193,61.787,51.893,61.787,99.142,128.824,140.804,200.977l.2-.135c41.662,72.22,76.19,146.728,103.786,222.784,9.491,26.115,18.105,52.297,25.914,78.614l477.471-353.089-258.659-448.058h.003ZM4284.447,2414.887l855.599-372.406,442.204,765.946-884.339,653.881-28.47-164.429c-11.779-68.249-29.479-135.622-53.306-201.313-23.422-64.48-52.836-127.949-88.507-189.737v-.404c-35.605-61.72-75.92-118.93-120.073-171.496-45.162-53.71-94.699-102.777-147.67-146.93l-128.017-106.68,152.583-66.431h-.003Z"/>
      <path d="M5312.755,4248.379l-477.471-353.089c-7.809,26.317-16.422,52.499-25.914,78.614-27.596,76.056-62.124,150.564-103.786,222.784l-.2-.135c-41.662,72.152-88.911,139.19-140.804,200.977-17.905,21.269-36.279,41.864-55.193,61.788l544.711,237.12,258.659-448.058h-.003ZM4832.119,3637.439l750.13,554.604-442.204,765.946-1008.182-438.837,128.017-106.68c52.971-44.153,102.507-93.219,147.67-146.929,44.153-52.567,84.468-109.777,120.073-171.496v-.404c35.671-61.787,65.085-125.257,88.507-189.737,23.827-65.691,41.527-133.065,53.306-201.313l28.47-164.429,134.208,99.277h.003Z"/>
      <path d="M3758.179,5444.143l66.971-589.401c-26.788,6.394-53.845,12.048-81.172,16.894-79.555,14.134-161.2,21.47-244.39,21.47s-164.835-7.336-244.39-21.47c-27.327-4.846-54.384-10.5-81.172-16.894l66.971,589.401h517.181ZM4047.261,4722.35l-105.403,927.885h-884.539l-124.182-1093.324,156.487,57.547c64.345,23.692,131.583,41.999,200.976,54.316,67.642,11.981,137.439,18.24,208.985,18.24s141.343-6.26,208.985-18.24c69.393-12.317,136.631-30.625,200.976-54.316l156.487-57.547-18.779,165.439h.007Z"/>
      <path d="M1945.081,4696.437l544.711-237.12c-18.913-19.922-37.288-40.519-55.193-61.788-51.893-61.788-99.142-128.824-140.804-200.977l-.2.135c-41.662-72.22-76.19-146.728-103.786-222.784-9.491-26.115-18.105-52.297-25.914-78.614l-477.471,353.089,258.659,448.058h-.003ZM2714.73,4585.584l-855.599,372.406-442.204-765.946,884.339-653.881,28.405,164.429c11.844,68.249,29.548,135.622,53.375,201.313,23.422,64.48,52.836,127.949,88.507,189.736v.404c35.605,61.72,75.854,118.931,120.073,171.496,45.162,53.71,94.699,102.777,147.67,146.929l128.017,106.68-152.583,66.431v.002Z"/>
      <path d="M1686.422,2752.091l477.471,353.089c7.809-26.317,16.422-52.499,25.914-78.614,27.596-76.056,62.124-150.564,103.786-222.784l.2.135c41.662-72.152,88.911-139.189,140.804-200.977,17.905-21.269,36.279-41.864,55.193-61.787l-544.711-237.12-258.659,448.058h.003ZM2167.057,3363.031l-750.13-554.604,442.204-765.946,1008.182,438.837-128.017,106.68c-52.971,44.153-102.507,93.219-147.67,146.93-44.219,52.566-84.468,109.777-120.073,171.496v.404c-35.671,61.787-65.085,125.257-88.507,189.737-23.827,65.691-41.527,133.065-53.375,201.313l-28.405,164.429-134.208-99.277h0Z"/>
      <path d="M2312.841,3500.269c0,327.715,132.795,624.401,347.571,839.175,214.776,214.707,511.462,347.57,839.177,347.57s624.401-132.863,839.177-347.57c214.776-214.775,347.571-511.461,347.571-839.175s-132.795-624.468-347.571-839.243c-214.776-214.707-511.462-347.57-839.177-347.57s-624.401,132.863-839.177,347.57c-214.776,214.774-347.571,511.461-347.571,839.243ZM2514.694,4485.163c-252.064-252.062-407.943-600.305-407.943-984.894s155.883-732.899,407.943-984.961c252.064-252.062,600.305-407.944,984.894-407.944s732.831,155.881,984.894,407.944c252.064,252.062,407.943,600.305,407.943,984.961s-155.883,732.831-407.943,984.893c-252.064,252.062-600.305,407.944-984.894,407.944s-732.831-155.882-984.894-407.944h0ZM4106.423,3500.269c0,167.526-67.911,319.234-177.757,429.078-109.777,109.777-261.486,177.688-429.078,177.688s-319.301-67.912-429.078-177.689c-109.843-109.844-177.757-261.552-177.757-429.078s67.911-319.301,177.757-429.145c109.777-109.777,261.486-177.689,429.078-177.689s319.301,67.912,429.078,177.689c109.843,109.844,177.757,261.552,177.757,429.145h0ZM3782.949,3783.628c72.489-72.556,117.382-172.708,117.382-283.36s-44.893-210.871-117.382-283.427c-72.489-72.489-172.709-117.315-283.36-117.315s-210.871,44.826-283.36,117.315c-72.555,72.556-117.382,172.708-117.382,283.427s44.827,210.804,117.382,283.36c72.489,72.489,172.709,117.315,283.36,117.315s210.871-44.826,283.36-117.315Z"/>
      <path d="M4686.332,3500.269c0-216.188-57.749-418.847-158.709-593.372-52.162-90.123-115.768-172.708-188.862-245.87-214.776-214.707-511.462-347.57-839.177-347.57s-624.401,132.863-839.177,347.57c-73.094,73.162-136.765,155.747-188.862,245.87-100.96,174.525-158.709,377.185-158.709,593.373s57.749,418.78,158.709,593.306c52.162,90.123,115.768,172.708,188.862,245.87,214.776,214.707,511.462,347.57,839.177,347.57s624.401-132.863,839.177-347.57c73.094-73.162,136.7-155.747,188.862-245.87,100.96-174.525,158.709-377.185,158.709-593.306h0ZM4106.42,3500.269c0,167.526-67.911,319.234-177.757,429.078-109.777,109.777-261.486,177.688-429.078,177.688s-319.301-67.912-429.078-177.689c-109.843-109.844-177.757-261.552-177.757-429.078s67.911-319.301,177.757-429.145c109.777-109.777,261.486-177.689,429.078-177.689s319.301,67.912,429.078,177.689c109.843,109.844,177.757,261.552,177.757,429.145h0Z" style="fill: #0287d0; fill-rule: evenodd;"/>
      <path d="M4509.519,2541.019c149.691,157.564,262.83,350.06,326.032,563.96l477.201-352.887-258.659-448.058-544.577,236.986h.003Z" style="fill: #0287d0; fill-rule: evenodd;"/>
      <path d="M5312.755,4248.379l-477.201-352.887c-63.202,213.899-176.344,406.395-326.032,563.96l544.577,236.985,258.659-448.058h-.003Z" style="fill: #0287d0; fill-rule: evenodd;"/>
      <path d="M3758.179,5444.143l66.971-589.267c-104.46,24.97-213.497,38.23-325.562,38.23s-221.102-13.259-325.562-38.23l66.971,589.267h517.181Z" style="fill: #0287d0; fill-rule: evenodd;"/>
      <path d="M1945.081,4696.437l544.577-236.985c-149.691-157.564-262.83-350.06-326.032-563.96l-477.201,352.887,258.659,448.058h-.003Z" style="fill: #0287d0; fill-rule: evenodd;"/>
      <path d="M1686.422,2752.091l477.201,352.887c63.202-213.9,176.344-406.396,326.032-563.96l-544.577-236.986-258.659,448.058h.003Z" style="fill: #0287d0; fill-rule: evenodd;"/>
      <path d="M3240.998,1556.327l-66.971,589.267c104.46-24.971,213.428-38.23,325.562-38.23s221.102,13.259,325.562,38.23l-66.971-589.267h-517.181Z" style="fill: #0287d0; fill-rule: evenodd;"/>
      <path d="M2489.655,2541.019l-544.577-236.986-258.659,448.058,35.001,25.913,223.659-387.348,488.779,212.688c17.97-21.336,36.549-42.066,55.797-62.326h0Z" style="fill: #39d5ff; fill-rule: evenodd;"/>
      <path d="M3240.998,1642.95h517.181l56.875,500.288c3.365.808,6.731,1.548,10.096,2.356l-66.971-589.267h-517.181l-66.971,589.267c3.365-.808,6.731-1.548,10.096-2.356l56.875-500.288Z" style="fill: #39d5ff; fill-rule: evenodd;"/>
      <path d="M5054.095,2304.034l-544.577,236.986c19.249,20.259,37.827,40.99,55.797,62.326l488.779-212.688,223.659,387.348,35.001-25.913-258.659-448.058h0Z" style="fill: #39d5ff; fill-rule: evenodd;"/>
      <path d="M3499.588,2416.098c327.714,0,624.401,132.795,839.177,347.57,73.094,73.095,136.7,155.747,188.862,245.803,92.881,160.66,149.287,345.147,157.631,542.085.739-17.029,1.078-34.124,1.078-51.287,0-216.188-57.749-418.847-158.709-593.372-52.162-90.123-115.768-172.708-188.862-245.87-214.776-214.707-511.462-347.57-839.177-347.57s-624.401,132.863-839.177,347.57c-73.094,73.162-136.765,155.747-188.862,245.87-100.96,174.525-158.709,377.185-158.709,593.373,0,17.163.335,34.259,1.078,51.287,8.348-196.938,64.68-381.425,157.631-542.085,52.097-90.056,115.768-172.708,188.862-245.803,214.776-214.774,511.462-347.57,839.177-347.57h0Z" style="fill: #39d5ff; fill-rule: evenodd;"/>
    </g>
  </g>
</svg>