<?xml version="1.0" encoding="UTF-8"?>
<svg xmlns="http://www.w3.org/2000/svg" version="1.1" viewBox="0 0 2298.324 2312.146">
  <!-- Generator: Adobe Illustrator 28.7.7, SVG Export Plug-In . SVG Version: 1.2.0 Build 194)  -->
  <g style="isolation: isolate;">
    <g id="Layer_1">
      <g>
        <g>
          <path d="M2247.142,1112.693c-2.857-55.669-10.397-112.396-31.404-164.404-19.351-47.906-51.105-89.275-91.404-121.458-81.068-64.742-184.312-93.381-283.219-118.018-117.755-29.33-237.397-50.878-357.997-64.388-244.296-27.366-492.342-22.498-735.355,14.577-122.025,18.616-242.808,45.369-361.176,80.402-94.239,27.892-200.7,55.345-274.115,124.864-14.674,13.896-27.326,29.676-37.1,46.977,5.303-24.288,11.395-48.405,18.263-72.263,1.149-3.99-5.055-2.333-5.974.343-64.05,186.713-68.063,389.574-23.77,581.231,44.428,192.244,135.556,375.758,271.094,520.089,138.335,147.311,318.569,248.709,513.652,299.091,195.045,50.372,403.023,51.246,597.402-3.067,192.094-53.676,364.367-162.714,498.809-309.682,133.472-145.908,229.683-325.797,275.012-518.402,22.751-96.67,32.378-196.673,27.285-295.892Z" style="fill: #900718;"/>
          <path d="M2219.253,1292.686c-22.745,191.327-97.469,375.141-211.44,530.219-114.986,156.458-270.418,282.389-450.447,356.176-182.36,74.743-384.48,95.036-578.922,65.839-193.964-29.124-382.021-109.579-533.617-234.619-147.851-121.951-259.533-285.13-326.286-464.333-66.526-178.588-84.426-374.274-56.417-562.438,7.09.059,16.875-6.587,17.739-14.503,10.194-93.623,108.998-139.975,187.573-167.925,111.341-39.606,226.439-70.015,342.14-93.809,233.151-47.949,472.655-65.879,710.335-52.509,118.274,6.653,236.125,20.85,352.566,42.655,107.704,20.169,218.383,43.183,320.159,84.795,94.801,38.76,176.29,101.012,209.653,201.238,17.209,51.694,22.151,106.759,23.679,160.939,1.397,49.513-.867,99.093-6.713,148.277Z" style="fill: #d02a24;"/>
          <path d="M1460.891,2201.551c-72.826,14.98-146.101,27.854-219.81,37.652-71.851,9.551-143.925,3.587-215-9.226-70.719-12.749-140.702-30.836-210.174-49.093-57.358-15.073-113.169-35.836-166.887-60.914-113.008-52.756-217.243-124.544-308.451-209.484-1.447-1.347-2.864-2.729-4.304-4.083,33.608,37.151,69.83,71.95,108.561,103.897,151.596,125.041,339.653,205.495,533.617,234.619,191.489,28.753,390.408,9.469,570.582-62.509-29.312,6.67-58.683,13.083-88.135,19.141Z" style="fill: #f0bc83; mix-blend-mode: screen; opacity: .93;"/>
          <path d="M779.068,1811.758c-3.594-67.172-10.244-134.893-28.918-199.746-36.409,21.853-64.431,55.781-87.877,90.605-46.038,68.376-75.541,145.228-111.763,218.783-20.351,41.329-40.1,83.263-57.812,125.998,94.213,68.722,200.152,121.497,311.448,156.92-7.987-59.321-15.073-118.701-17.886-178.553-3.354-71.302-3.38-142.722-7.192-214.006Z" style="fill: #d02a24; mix-blend-mode: screen;"/>
        </g>
        <g>
          <path d="M2261.077,976.126c-19.412-266.802-139.517-526.586-346.936-698.612-193.304-160.319-446.393-242.51-696.275-242.831-211.189-.272-418.594,56.318-606.997,150.211-13.099,6.818-26.099,13.828-38.974,21.059-27.747,15.585-55.3,31.583-81.755,49.289-13.784,9.226-27.341,18.79-40.739,28.565-13.334,9.724-27.48,19.154-39.702,30.258-19.287,17.525-37.157,36.676-55.423,55.372,5.289-3.854,10.547-7.757,15.868-11.564C192.908,535.378,75.516,772.239,58.42,1026.488c-15.912,236.653,49.942,477.28,178.55,676.04,134.312,207.572,335.044,361.523,571.659,434.224,234.913,72.179,495.999,63.085,726.751-20.977,229.783-83.71,423.097-248.701,551.741-455.712,126.135-202.973,191.349-444.864,173.956-683.936Z" style="fill: #900718;"/>
          <path d="M2153.769,1495.555c-91.436,216.975-249.578,406.444-453.322,526.03-215.479,126.474-466.816,164.531-712.055,128.237-236.898-35.059-458.891-146.914-621.803-323.313-157.706-170.76-258.802-393.255-284.693-624.178-25.977-231.704,28.631-464.586,154.443-660.856,51.073-79.677,112.457-152.847,182.025-217.058,183.199-123.373,385.224-215.652,606.035-249.867,244.402-37.871,499.606.7,717.298,120.028,226.61,124.217,388.574,333.929,459.212,581.921,67.676,237.596,48.575,491.922-47.142,719.057Z" style="fill: #dd2a1b;"/>
          <path d="M232.523,638.781c-19.492,25.053-34.003,52.997-38.572,86.171,1.865-8.121,4.16-16.206,7.232-24.297,8.218-21.657,19.216-42.156,31.339-61.874Z" style="fill: #eb9d94;"/>
          <path d="M2096.592,656.237c-25.9-46.732-57.322-89.931-89.866-132.015-60.14-77.772-128.161-149.808-206.737-208.332-76.821-57.219-162.906-100.221-254.176-127.408-52.652-15.682-106.227-23.998-160.09-33.865-57.883-10.604-115.513-23.087-173.936-30.317-59.671-7.385-118.869-7.513-178.644-1.369-53.376,5.486-106.911,11.116-159.465,22.424-51.772,11.14-102.011,28.409-149.147,53.069-50.752,26.55-99.318,59.098-146.78,91.303-46.564,31.595-91.681,65.445-134.16,102.592-21.166,18.509-41.676,37.799-61.466,57.835-17.799,18.02-34.316,37.334-52.413,55.033-30.484,29.813-66.084,58.149-95.229,90.571-1.403,2.152-2.846,4.278-4.228,6.445-15.01,23.528-28.983,48.013-39.222,74.137-10.572,26.974-13.724,53.864-16.532,82.566-6.369,65.082-14.262,130-20.405,195.107-5.826,61.746,2.177,124.044,8.443,185.455,6.481,63.528,7.863,127.185,12.858,190.805,5.25,66.849,14.634,134.134,33.84,198.429,14.738,49.344,37.655,96.126,65.272,139.221,57.449,89.644,135.687,164.281,220.4,226.66,41.168,30.314,84.245,57.912,128.649,83.001,22.365,12.635,45.36,24.06,67.481,37.14,21.772,12.871,42.914,26.796,64.396,40.153,44.091,27.414,90.143,50.331,141.738,57.948,65.967,9.739,133.475,9.052,199.887,5.872,64.765-3.101,129.982-6.89,194.535-13.063,47.53-4.546,94.109-15.504,136.849-37.699,21.02-10.916,40.864-24.048,59.859-38.287,22.092-16.561,42.254-35.474,64.077-52.343,46.618-36.035,99.339-62.362,150.784-90.245,87.982-47.686,168.478-113.462,224.064-198.685,14.663-22.479,26.565-46.617,41.043-69.181,13.508-21.05,28.942-40.736,44.911-59.877,33.92-40.657,70.805-79.3,98.097-125.178,27.399-46.054,44.181-99.9,57.761-151.704,13.647-52.067,22.498-105.435,26.43-159.184,7.839-107.128-3.786-215.812-35.586-318.28-16.024-51.627-37.166-101.59-63.291-148.73Z" style="fill: #f0734b;"/>
          <path d="M1744.6,728.024c-37.011-16.628-78.805-19.011-115.967-35.418-17.392-7.678-30.933-18.457-41.507-34.301-9.47-14.191-15.026-32.706-29.363-42.991-9.507-6.822-21.301-9.991-32.604-12.313-16.721-3.434-33.041-4.169-50.045-2.871-31.201,2.381-63.955,10.026-94.893,1.726-18.827-5.049-35.889-15.451-46.753-31.888-10.08-15.25-14.254-33.53-17.64-51.235-7.846-41.025-15.118-88.184-57.855-107.672-9.213-4.2-19.353-5.49-28.725-1.06-8.045,3.803-14.419,10.48-20.216,17.065-13.257,15.062-24.838,31.824-42.384,42.321-.752.45-1.83.182-2.258-.592-13.164-23.826-13.689-51.223-20.18-77.08-23.9,37.824-22.541,86.937-50.611,122.842-.727.93-2.031.407-2.592-.334-30.848-40.747-37.148-94.062-62.892-137.34-14.179,40.131-20.826,111.596-74.594,104.165-20.059-2.771-35.15-19-48.07-33.207-13.884-15.269-28.239-34.505-48.582-41.327-28.147-9.439-55.719,14.11-72.934,33.698-14.222,16.183-22.073,35.594-23.624,57.016-1.357,18.783.883,37.61.913,56.402.054,35.415-6.783,71.965-35.253,95.626-12.983,10.789-28.192,18.541-43.362,25.744-13.563,6.439-26.943,12.3-41.164,17.195-16.027,5.517-32.329,10.681-47.512,18.305-12.3,6.176-26.539,14.997-30.233,29.249-4.137,15.966,11.969,33.742,20.851,45.37,9.946,13.019,22.344,26.353,27.248,42.326.246.804-.295,1.861-1.152,2.03-28.498,5.626-60.441,7.758-85.409,24.015-3.096,2.017-6.028,4.272-8.722,6.801-.948.89-5.732,4.828-5.718,5.886.03,2.467,7.258,8.295,8.893,9.948,7.512,7.582,15.522,14.669,23.479,21.775,16.536,14.768,33.581,29.305,48.232,46.004,9.064,10.331,19.657,23.385,16.688,38.149-3.423,17.014-25.363,21.171-39.513,23.995-10.128,2.021-20.396,3.486-30.386,6.147-8.454,2.251-16.803,4.791-25.3,6.934-27.036,6.821-91.975,19.964-79.857,60.763,12.928,43.527,70.39,36.373,104.229,50.412.909.377,1.302,1.058,1.153,2.03-1.331,8.657-3.674,17.055-6.864,25.211-13.046,33.348-36.651,61.162-51.607,93.56-7.008,15.181-10.257,31.015-13.329,47.342-2.596,13.778-4.8,27.679-5.635,41.689-1.289,21.642.28,47.14,17.64,62.567,18.416,16.368,48.811,17.147,71.64,12.277,47.817-10.201,93.662-28.259,142.775-32.304,21.614-1.781,45.542-1.256,64.944,9.652,19.222,10.806,29.137,31.3,29.005,52.989-.183,29.639-14.272,58.211-26.945,84.289-12.199,25.099-27.819,51.011-32.5,78.934,16.445-3.433,36.218-10.897,52.298-3.985,8.684,3.734,15.281,11.068,20.879,18.449,5.727,7.554,10.848,15.094,14.68,23.801,6.787,15.418,10.106,32.212,17.5,47.365,8.126,16.652,21.753,25.72,40.48,25.881,24.072.208,45.087-9.791,63.341-24.817,32.424-26.691,56.524-66.735,96.381-83.472,18.055-7.582,39.086-8.934,57.386-1.465,19.906,8.125,36.433,22.843,53.447,35.594,16.007,11.997,35.179,26.059,56.304,24.385,22.671-1.797,34.985-20.185,42.414-39.64,7.306-19.132,11.52-39.596,21.414-57.68,10.254-18.741,28.255-31.242,49.415-34.77,26.439-4.407,53.377,4.98,77.366,15.213,24.76,10.562,48.53,22.447,71.557,36.361,19.776,11.95,48.766,31.258,71.712,16.16,20.209-13.298,25.98-40.969,30.057-63.059,4.357-23.604,7.244-47.792,16.832-70.023,9.805-22.735,26.79-39.698,47.787-52.389,39.754-24.029,88.854-32.892,115.826-74.28,37.298-57.234,16.621-132.63-2.609-192.429-10.2-31.721-20.487-63.511-29.167-95.694-8.199-30.396-13.815-61.774-11.103-93.353,2.282-26.586,9.946-51.723,23.537-74.617,12.666-21.335,27.132-41.576,38.796-63.509,10.493-19.732,20.283-42.465,14.311-65.106-4.379-16.605-18.896-26.747-33.784-33.437Z" style="fill: #e6995f; mix-blend-mode: screen; opacity: .52;"/>
          <path d="M1111.599,814.944c-.801-8.886-1.671-17.762-2.548-26.636-.788-17.659-2.021-35.303-4.17-52.967-.23-1.892-.934-3.135-1.926-3.862-7.173-62.289-15.85-124.369-25.279-186.431-6.774-44.582-14.747-88.872-20.033-133.644-4.103-34.761-5.736-69.991-13.251-104.242-13.613-62.053-50.406-111.557-117.879-116.73-63.444-4.865-126.273,27.496-177.834,61.062-70.628,45.983-135.378,103.043-201.072,155.702-63.04,50.532-131.962,97.689-188.638,155.489-40.37,41.173-82.203,95.521-83.084,155.906-.917,62.882,49.273,102.67,104.688,119.767,39.61,12.221,81.476,17.861,122.162,25.174,49.539,8.906,99.094,17.73,148.639,26.595,100.632,18.004,200.874,38,301.446,56.298,8.286,1.508,19.337-10.573,15.809-18.683-43.588-100.175-144.099-165.666-251.341-170.821,24.444-10.188,48.913-20.315,73.49-30.19,5.764-2.317,10.524-8.982,8.753-15.25-13.648-48.283-7.81-98.865,15.545-142.731,20.299,34.475,50.697,60.835,88.764,74.908,6.648,2.458,13.457-4.277,14.925-10.26,3.687-15.034,7.375-30.064,11.024-45.104,14.705,110.961,72.119,223.211,159.592,291.347,9.039,7.041,21.595-5.232,21.433-14.593-.268-15.572-.438-31.092-.781-46.584.98-1.045,1.674-2.307,1.565-3.521Z" style="fill: #ee9387; mix-blend-mode: screen; opacity: .61;"/>
          <path d="M984.455,716.626c-28.936-58.011-42.125-121.614-41.36-186.225.132-11.228-15.403-.485-16.896,5.164-7.569,28.652-14.638,57.424-21.692,86.204-34.627-15.346-62.043-39.894-80.2-74.118-3.068-5.782-11.121-1.619-13.67,2.525-30.583,49.714-41.747,106.004-31.93,163.244-37.081,15.615-74.334,30.797-111.594,45.984-7.823,3.189-14.957,20.252-1.286,18.73,108.561-12.082,216.34,46.471,269.288,140.651-148.009-26.502-296.146-52.32-444.151-78.869-58.666-10.524-136.116-15.688-175.318-67.344-45.152-59.496-4.271-132.234,37.939-180.056,48.476-54.919,111.208-97.41,168.577-142.397,62.689-49.157,124.725-99.122,187.284-148.441,48.823-38.493,104.313-75.963,166.508-87.721,69.021-13.049,125.094,22.515,152.165,86.079,32.456,76.206,31.442,167.94,40.049,249.048,6.618,62.356,13.879,124.557,22.684,186.571-1.27,1.475-2.151,3.105-2.27,4.668-2.61,34.203-2.453,68.118-1.83,102.228-42.216-35.593-76.709-74.623-102.298-125.925Z" style="fill: #aa1728;"/>
          <path d="M984.455,716.626c-28.936-58.011-42.125-121.614-41.36-186.225.132-11.228-15.403-.485-16.896,5.164-7.569,28.652-14.638,57.424-21.692,86.204-34.627-15.346-62.043-39.894-80.2-74.118-3.068-5.782-11.121-1.619-13.67,2.525-30.583,49.714-41.747,106.004-31.93,163.244-37.081,15.615-74.334,30.797-111.594,45.984-7.823,3.189-14.957,20.252-1.286,18.73,108.561-12.082,216.34,46.471,269.288,140.651-148.009-26.502-296.146-52.32-444.151-78.869-58.666-10.524-136.116-15.688-175.318-67.344-45.152-59.496-4.271-132.234,37.939-180.056,48.476-54.919,111.208-97.41,168.577-142.397,62.689-49.157,124.725-99.122,187.284-148.441,48.823-38.493,104.313-75.963,166.508-87.721,69.021-13.049,125.094,22.515,152.165,86.079,32.456,76.206,31.442,167.94,40.049,249.048,6.618,62.356,13.879,124.557,22.684,186.571-1.27,1.475-2.151,3.105-2.27,4.668-2.61,34.203-2.453,68.118-1.83,102.228-42.216-35.593-76.709-74.623-102.298-125.925Z" style="fill: #dd2a1b;"/>
          <path d="M1090.853,735.655c-8.805-62.014-16.065-124.214-22.685-186.571-8.605-81.108-7.593-172.842-40.048-249.048-27.072-63.564-83.144-99.128-152.165-86.079-62.196,11.758-117.685,49.228-166.508,87.721-62.559,49.32-124.595,99.284-187.285,148.441-57.368,44.987-120.1,87.479-168.575,142.397-42.211,47.822-83.092,120.561-37.94,180.056,39.202,51.656,116.653,56.82,175.318,67.344,148.006,26.549,296.141,52.367,444.15,78.869-52.949-94.18-160.726-152.733-269.286-140.651-13.672,1.521-6.537-15.542,1.284-18.73,37.261-15.186,74.515-30.369,111.594-45.984-9.816-57.24,1.347-113.531,31.932-163.244,2.549-4.144,10.602-8.308,13.668-2.525,18.158,34.223,45.574,58.772,80.201,74.118,7.054-28.78,14.122-57.551,21.693-86.204,1.492-5.649,17.027-16.393,16.895-5.164-.764,64.611,12.424,128.213,41.361,186.225,25.588,51.302,60.081,90.332,102.296,125.925-.622-34.11-.778-68.025,1.831-102.228.119-1.563,1-3.194,2.27-4.668ZM988.03,547.608c-.253,1.278-1.909,1.514-2.759.728-10.806-10.02-18.066-23.502-24.675-36.486-6.609-12.981-12.536-26.305-19.463-39.123-5.925-10.963-12.684-22.59-22.706-30.337-4.39-3.394-10.498-7.304-16.204-7.437-4.489-.105-6.573,3.519-7.689,7.392-1.635,5.678-1.85,11.75-2.251,17.61-.459,6.723-.919,13.452-2.096,20.095-.186,1.053-1.58,1.499-2.423.986-2.983-1.812-5.8-3.873-8.46-6.131-23.211-19.7-33.538-51.611-59.327-68.645-14.687-9.7-32.848-11.533-48.924-4.004-17.51,8.2-29.703,24.983-36.62,42.606-3.712,9.459-5.85,19.046-6.135,29.213-.313,11.234.886,22.484,2.685,33.558,1.829,11.25,4.309,22.383,6.989,33.457,1.772,7.326,3.235,14.798,5.464,22.002,4.764,15.394,11.129,30.319,14.494,46.13,1.368,6.423,2.481,13.344,1.16,19.87-1.271,6.282-6.347,11.326-11.854,14.288-13.283,7.142-29.911,2.64-43.511-1.109-7.962-2.195-15.856-4.685-23.938-6.422-6.62-1.421-13.635-2.434-20.35-1.089-.902,6.572.32,13.304,1.878,19.68,1.795,7.354,4.191,14.543,6.262,21.82,3.204,11.26,6.596,24.378,2,35.74-4.31,10.657-14.352,15.557-25.182,17.09-13.029,1.843-26.365.302-39.408-.601-11.778-.817-24.63-2.036-36.1,1.59.969,13.666,8.244,25.539,17.811,35.061,10.244,10.195,22.634,18.073,35.253,24.982,13.999,7.666,28.614,14.167,43.313,20.355,13.813,5.815,27.762,11.302,41.511,17.268,10.707,4.645,21.635,9.459,31.23,16.187,1.174.823.956,3.303-.834,3.075-23.769-3.032-46.767-9.716-69.819-16.031-15.915-4.36-31.972-8.214-48.178-11.322-3.96.663-7.925,1.296-11.9,1.848-46.437,6.457-94.639,7.49-140.983-.236-21.613-3.602-43.341-9.315-62.782-19.651-17.275-9.184-33.948-23.615-40.677-42.523-12.679-35.631,22.84-65.188,48.98-82.407,15.939-10.499,32.928-19.365,50.228-27.394,7.538-3.5,15.229-6.652,22.778-10.124,11.446-5.266,22.296-11.776,32.496-19.161,42.704-30.921,73.475-75.381,103.701-117.794,7.352-10.315,14.706-20.629,22.28-30.782,6.68-8.953,13.694-17.614,19.967-26.865,13.714-20.223,26.066-41.731,42.7-59.784,7.568-8.213,15.909-14.809,25.936-19.732,5.831-2.862,12.059-4.792,18.567-5.145,5.699-.309,11.343.647,16.919,1.71,11.789,2.25,23.588,3.538,35.448.892,9.396-2.096,18.124-6.34,26.335-11.277,16.67-10.023,31.425-23.184,48.905-31.864,7.909-3.926,16.396-6.802,25.265-7.303,9.777-.552,19.371,2.032,27.994,6.552,17.335,9.088,29.09,25.402,37.404,42.706,9.37,19.508,14.962,40.734,18.637,61.994,3.829,22.152,5.595,44.684,5.571,67.159-.021,19.093-1.194,38.378-4.915,57.136Z" style="fill: #b21801;"/>
          <path d="M1835.381,451.112c-24.447-21.681-52.428-39.002-80.267-55.914-34.87-21.181-69.668-42.511-104.785-63.28-69.115-40.876-137.398-83.784-207.529-122.877-25.409-14.164-53.751-23.757-82.719-15.496-22.071,6.294-40.26,21.077-54.483,38.708-37.226,46.146-47.799,108.678-59.901,164.971-29.19,135.779-46.189,272.313-46.606,410.233-1.708,11.367-4.294,22.654-7.002,33.934-1.123,22.493-3.395,44.928-5.109,67.381-1.514,19.827-2.543,39.778-1.936,59.665,3.302-.376,7.235-2.664,9.126-5.163,44.824-59.267,63.019-135.994,50.586-209.139,64.26-19.643,104.382-88.935,90.098-154.498,26.79,2.328,48.042,25.974,55.179,51.247,9.68,34.278-2.096,70.066-11.383,103.058-1.945,6.909,6.396,7.447,10.431,4.665,21.542-14.848,43.199-29.528,64.862-44.197-28.985,86.222-79.705,163.114-145.734,225.775-6.379,6.053-4.856,20.796,6.335,14.951,145.226-75.832,290.327-151.912,435.231-228.358,53.774-28.369,129.435-55.035,145.391-121.09,14.26-59.038-16.605-116.28-59.784-154.574Z" style="fill: #ee9387; mix-blend-mode: screen; opacity: .61;"/>
          <path d="M1850.211,653.24c-26.495,21.143-60.152,34.382-90.057,49.928-135.377,70.377-270.586,141.079-405.688,211.981,55.06-63.06,95.501-137.906,119.694-218.333,2.048-6.81-6.351-7.223-10.236-4.578-21.746,14.801-43.504,29.587-65.328,44.274,9.215-33.453,15.813-70.86.856-102.933-12.898-27.654-39.467-47.713-70.72-44.323-3.606.391-7.165,4.934-5.978,8.493,20.315,60.931-22.714,132.67-85.502,144.389-3.956.739-10.01,5.863-8.955,10.557,12.527,55.746,5.11,112.848-19.912,162.812-.84-142.924,7.221-289.113,31.186-430.076,10.92-64.225,20.763-132.905,45.663-193.478,20.426-49.688,59.039-102.337,119.867-82.299,32.188,10.604,61.369,32.34,90.057,49.876,31.438,19.216,62.875,38.433,94.314,57.649,60.581,37.03,122.453,72.195,182.394,110.236,51.187,32.486,103.228,76.117,110.882,140.243,3.926,32.888-6.175,64.548-32.535,85.581Z" style="fill: #dd2a1b;"/>
          <path d="M1882.747,567.659c-7.654-64.126-59.695-107.757-110.882-140.243-59.941-38.041-121.813-73.206-182.394-110.236-31.438-19.216-62.875-38.433-94.314-57.649-28.689-17.535-57.869-39.272-90.057-49.876-60.827-20.038-99.441,32.611-119.867,82.299-24.9,60.573-34.743,129.252-45.663,193.478-23.965,140.963-32.026,287.152-31.186,430.076,25.023-49.963,32.439-107.066,19.912-162.812-1.055-4.694,4.999-9.818,8.955-10.557,62.788-11.719,105.818-83.458,85.502-144.389-1.187-3.559,2.372-8.102,5.978-8.493,31.253-3.39,57.822,16.669,70.72,44.323,14.957,32.073,8.359,69.48-.856,102.933,21.824-14.687,43.582-29.473,65.328-44.274,3.885-2.645,12.284-2.232,10.236,4.578-24.193,80.427-64.633,155.273-119.694,218.333,135.102-70.903,270.311-141.604,405.688-211.981,29.905-15.546,63.562-28.786,90.057-49.928,26.36-21.033,36.461-52.693,32.535-85.581ZM1802.216,580.717c-2.825,10.072-8.948,18.941-15.881,26.632-7.572,8.4-16.378,15.638-25.509,22.274-4.596,3.34-9.306,6.52-14.087,9.589-4.102,2.634-8.462,4.976-12.442,7.784-12.021,8.478-23.507,17.771-35.215,26.672-32.786,24.93-66.123,49.597-101.992,69.967-15.923,9.041-32.556,17.497-50.16,22.747-12.339,3.679-26.73,6.339-39.103,1.359-.881-.356-1.34-1.076-1.152-2.03,2.14-10.922,7.411-20.89,13.92-29.823,12.672-17.386,29.262-31.389,44.036-46.887,13.023-13.663,26.271-29.752,28.019-49.247-3.661.185-7.266.791-10.829,1.691-8.793,2.223-17.149,5.827-25.791,8.531-7.519,2.353-15.609,4.157-23.468,2.511-8.379-1.756-15.415-7.848-19.668-15.13-3.614-6.19-4.824-13.398-4.812-20.486.031-16.292,5.333-32.083,5.516-48.378.093-8.216-1.229-16.493-5.255-23.754-3.474-6.269-8.656-11.623-14.843-15.252-19.279-11.308-43.605-3.51-62.891,3.653-10.646,3.954-21.063,8.499-31.718,12.426-8.503,3.135-17.565,6.288-26.731,6.392-7.453.084-14.316-2.672-18.467-9.074-5.479-8.451-5.922-19.727-5.609-29.715-7.53,5.284-14.295,11.542-20.346,18.479-23.515,26.958-36.556,61.932-62.912,86.573-1.013.947-2.852.311-2.817-1.166.541-22.976,3.274-45.85,7.585-68.414,7.495-39.238,19.648-77.407,32.993-115.006,1.618-15.461,3.552-30.885,6.068-46.238,2.922-17.824,6.552-35.589,11.725-52.907,4.452-14.908,10.003-29.872,18.448-43.023,6.568-10.229,15.341-19.729,27.059-23.881,5.433-1.925,11.314-2.509,17.033-1.871,8.105.905,15.557,4.727,22.407,8.963,18.778,11.607,35.115,27.222,50.994,42.414,15.415,14.748,31.334,29.166,45.759,44.889,17.672,19.262,33.89,39.993,53.447,57.444,9.915,8.848,20.702,16.722,32.482,22.909,13.705,7.197,28.093,11.238,43.414,13.176,15.392,1.948,31.024,2.509,46.152,6.19,6.648,1.617,13.293,3.788,19.425,6.853,3.676,1.838,7.209,4.157,9.827,7.371,1.945,2.386,3.261,5.138,4.812,7.776,2.152,3.665,5.009,6.207,7.933,9.211,3.6,3.696,5.528,8.58,8.192,12.911,3.425,5.567,8.575,9.614,14.411,12.465,10.484,5.124,22.639,4.895,33.435,9.123,11.022,4.318,19.223,13.905,24.141,24.501,4.216,9.086,5.176,19.137,2.465,28.804Z" style="fill: #b21801;"/>
          <path d="M2140.305,1002.258c-13.789-57.867-30.616-116.351-51.247-172.173-16.848-45.587-45.458-84.645-95.923-93.731-49.161-8.85-100.602,10.114-145.124,29.116-59.163,25.251-117.854,51.685-176.491,78.127-118.339,53.362-236.22,108.018-351.951,166.846-12.731,6.472-25.446,12.976-38.175,19.452-.207-2.756-2.673-4.676-6.852-2.267-28.656,16.516-58.26,31.175-86.644,48.132-5.861,3.501-9.933,14.342-1.096,16.399,79.137,18.425,161.237,19.078,240.387,1.417-27.337,32.032-61.202,57.518-99.622,75.389-6.05,2.815-12.923,17.982-1.092,15.917,56.753-9.909,115.008-6.672,169.792,10.28-30.461,6.82-58.017,21.762-81.19,45.027-15.688,15.749-28.644,34.652-36.866,55.347-3.242,8.165-4.585,17.034-10.539,23.783-5.232,5.931-12.691,10.242-19.566,13.977-26.999,14.668-63.792,24.362-76.631,55.6-8.927,21.719.379,42.659,11.25,61.687,11.973,20.959,24.267,41.767,36.831,62.377,49.34,80.931,105.483,161.872,181.824,219.676,72.18,54.654,169.37,89.968,259.347,62.446,46.412-14.197,80.153-45.379,102.947-87.641,12.07-22.379,21.169-46.2,33.007-68.689,13.62-25.873,32.199-46.31,54.422-65.094,40.726-34.422,79.221-68.718,110.539-112.315,29.978-41.731,53.873-88.058,70.419-136.702,36.106-106.144,34.052-214.085,8.246-322.385Z" style="fill: #ee9387; mix-blend-mode: screen; opacity: .61;"/>
          <path d="M2020.444,1486.932c-16.042,18.499-33.516,35.724-52.157,51.595-19.471,16.578-40.175,31.91-57.374,50.966-31.644,35.061-44.937,80.28-68.495,120.297-51.389,87.3-164.366,83.09-247.29,47.561-80.269-34.392-143.267-99.809-195.102-168.398-27.594-36.513-52.508-74.955-76.234-114.067-11.393-18.783-25.637-38.48-32.923-59.288-7.559-21.588,1.434-34.596,19.601-44.834,25.764-14.519,58.154-22.061,75.251-48.315,10.029-15.402,12.371-34.368,22.67-50.096,12.916-19.726,30.646-35.965,51.261-47.381,19.966-11.056,44.016-18.785,66.977-19.176,5.265-.09,16.714-11.159,8.169-14.543-54.143-21.45-111.319-30.924-168.836-27.092,33.933-21.215,63.5-48.516,87.915-80.852,3.492-4.625,2.533-13.764-5.155-11.876-77.265,18.985-157.017,21.235-234.897,6.146,8.056-5.15,16.048-10.397,24.032-15.662,105.363-49.608,211.256-98.112,317.029-146.842,53.915-24.839,107.985-49.338,162.209-73.497,51.803-23.08,103.418-47.87,156.498-67.892,44.203-16.673,98.98-31.114,142.847-5.825,44.372,25.579,57.348,82.093,71.793,127.327,33.874,106.075,64.64,216.481,50.37,328.837-12.318,96.972-54.148,189.095-118.161,262.909Z" style="fill: #aa1728;"/>
          <path d="M2020.444,1486.932c-16.042,18.499-33.516,35.724-52.157,51.595-19.471,16.578-40.175,31.91-57.374,50.966-31.644,35.061-44.937,80.28-68.495,120.297-51.389,87.3-164.366,83.09-247.29,47.561-80.269-34.392-143.267-99.809-195.102-168.398-27.594-36.513-52.508-74.955-76.234-114.067-11.393-18.783-25.637-38.48-32.923-59.288-7.559-21.588,1.434-34.596,19.601-44.834,25.764-14.519,58.154-22.061,75.251-48.315,10.029-15.402,12.371-34.368,22.67-50.096,12.916-19.726,30.646-35.965,51.261-47.381,19.966-11.056,44.016-18.785,66.977-19.176,5.265-.09,16.714-11.159,8.169-14.543-54.143-21.45-111.319-30.924-168.836-27.092,33.933-21.215,63.5-48.516,87.915-80.852,3.492-4.625,2.533-13.764-5.155-11.876-77.265,18.985-157.017,21.235-234.897,6.146,8.056-5.15,16.048-10.397,24.032-15.662,105.363-49.608,211.256-98.112,317.029-146.842,53.915-24.839,107.985-49.338,162.209-73.497,51.803-23.08,103.418-47.87,156.498-67.892,44.203-16.673,98.98-31.114,142.847-5.825,44.372,25.579,57.348,82.093,71.793,127.327,33.874,106.075,64.64,216.481,50.37,328.837-12.318,96.972-54.148,189.095-118.161,262.909Z" style="fill: #dd2a1b;"/>
          <path d="M2088.234,895.186c-14.445-45.234-27.421-101.748-71.793-127.327-43.867-25.289-98.644-10.848-142.847,5.825-53.08,20.022-104.695,44.811-156.498,67.892-54.224,24.159-108.294,48.658-162.209,73.497-105.773,48.73-211.666,97.234-317.029,146.842-7.983,5.264-15.976,10.511-24.032,15.662,77.88,15.089,157.632,12.84,234.897-6.146,7.688-1.888,8.647,7.25,5.155,11.876-24.415,32.336-53.982,59.637-87.915,80.852,57.516-3.831,114.693,5.643,168.836,27.092,8.545,3.385-2.903,14.453-8.169,14.543-22.961.392-47.01,8.12-66.977,19.176-20.615,11.417-38.345,27.655-51.261,47.381-10.299,15.728-12.641,34.694-22.67,50.096-17.097,26.254-49.487,33.796-75.251,48.315-18.168,10.238-27.161,23.247-19.601,44.834,7.286,20.808,21.53,40.505,32.923,59.288,23.726,39.112,48.64,77.554,76.234,114.067,51.834,68.589,114.833,134.006,195.102,168.398,82.924,35.529,195.901,39.739,247.29-47.561,23.558-40.018,36.851-85.236,68.495-120.297,17.199-19.057,37.902-34.388,57.374-50.966,18.641-15.871,36.115-33.096,52.157-51.595,64.013-73.814,105.843-165.937,118.161-262.909,14.27-112.356-16.496-222.762-50.37-328.837ZM2009.423,883.72c-14.332,22.549-35.801,40.191-56.195,57.016-9.019,7.442-18.233,14.696-26.88,22.576-9.767,8.903-20.095,17.302-29.008,27.1-8.913,9.796-21.398,25.815-15.947,40.016,4.662,12.147,17.35,18.005,27.34,25.031,9.471,6.661,16.094,16.145,17.575,27.875,1.233,9.774-3.37,18.038-9.841,24.986-8.038,8.629-17.6,15.669-25.387,24.566-10.426,11.913-17.476,27.073-20.547,42.564-6.447,32.518,6.669,64.499,21.434,92.819,14.47,27.754,31.444,54.217,41.781,83.936,9.495,27.293,14.105,56.756,10.244,85.555-3.909,29.177-17.02,56.191-37.652,77.215-23.291,23.734-53.035,38.327-84.96,46.569-31.636,8.168-64.316,10.991-96.241,17.73-7.265,1.534-14.551,3.208-21.565,5.67-3.952,1.388-8.246,3.051-11.321,6.009-4.299,4.137-4.132,10.55-5.11,16.033-1.786,9.999-6.393,19.418-12.658,27.38-8.019,10.192-19.859,15.497-32.64,16.344-13.682.906-27.457-2.558-40.365-6.761-10.643-3.465-21.268-7.378-31.508-11.911-36.72-16.259-71.729-38.382-103.444-62.893-17.473-13.503-34.398-28.266-48.245-45.552-10.465-13.063-20.253-28.64-21.294-45.803-.448-7.387,1.041-14.76,4.362-21.375,1.848-3.68,4.253-7.122,6.997-10.189,3.732-4.169,8.717-6.427,13.871-8.347,6.483-2.416,13.499-4.565,17.714-10.471,4.354-6.098,3.733-12.526,1.839-19.419-1.763-6.417-4.517-12.707-5.182-19.379-.601-6.03.603-12.829,1.892-18.72,2.483-11.352,8.041-21.833,16.667-29.7,8.489-7.741,19.096-12.689,29.934-16.201,11.272-3.653,23.473-6.633,35.294-7.669,8.195-.718,16.475-.569,24.691-.418,23.248.428,46.474,1.636,69.734,1.6,22.75-.035,46.372-.453,68.476-6.413,7.972-2.15,16.321-5.146,22.59-10.715,7.211-6.403,8.983-16.048,6.145-25.06-3.404-10.803-11.536-19.86-19.51-27.592-8.689-8.428-18.305-15.854-28.107-22.933-7.975-5.759-15.934-11.741-24.299-16.921-12.01-7.439-24.867-13.651-36.092-22.301-8.74-6.733-17.717-16.324-18.183-28.048-.324-8.145,4.655-13.288,11.231-17.03,1.987-1.131,4.899-2.359,5.492-4.82,1.079-4.491-4.262-10.391-6.726-13.507-6.235-7.887-14.666-11.385-24.139-14.139-20.552-5.971-43.187-7.271-62.407-17.266-7.279-3.786-14.047-9.528-16.267-17.734-2.429-8.97,2.517-17.236,8.603-23.446,8.067-8.234,18.171-14.348,27.68-20.738,7.988-5.368,17.252-11.088,22.816-19.246-20.474-4.12-41.622-1.438-62.069,1.604-20.951,3.116-42.036,6.938-63.306,5.868-1.083-.054-1.858-1.01-1.59-2.089.698-2.818,1.642-5.549,2.815-8.205,5.205-11.781,14.639-21.218,24.72-28.958,12.633-9.7,26.885-17.192,41.382-23.686,30.14-13.5,61.965-22.87,93.746-31.612,12.574-3.458,25.198-6.744,37.632-10.682,21.98-6.96,43.777-14.488,65.579-21.978,46.197-15.868,92.507-31.758,140.008-43.333,9.235-2.25,18.549-4.342,27.917-6.23,13.836-5.635,27.842-10.829,42.048-15.398,16.577-5.333,33.535-9.849,50.834-12.076,13.191-1.698,27.243-2.259,40.111,1.696,10.378,3.191,19.339,9.795,24.021,19.772,7.846,16.724,2.998,34.443-6.53,49.433Z" style="fill: #b21801;"/>
          <path d="M932.175,1072.097c-5.057-2.397-10.115-4.793-15.172-7.19,1.25.333,2.5.662,3.752.995,1.121.298,2.441-.036,3.683-.715-6.75-5.954-13.642-11.752-20.807-17.123-65.821-24.098-136.042-37.329-204.999-47.977-79.786-12.321-160.299-19.404-240.804-25.011-38.924-2.712-78.449-6.995-117.488-6.433-30.081.433-61.243,6.216-84.067,27.245-18.37,16.926-31.705,43.176-24.948,68.486,4.195,15.711,16.147,26.931,23.592,40.965,9.624,18.137,10.617,38.47,8.225,58.482-4.165,34.857-14.739,68.254-16.796,103.496-2.337,40.027,2.084,80.068,10.7,119.152,16.908,76.681,48.649,149.302,81.492,220.288,23.195,50.135,52.212,109.833,110.431,125.054,59.25,15.492,114.093-23.425,153.151-63.98,27.151-28.191,49.434-60.269,72.181-91.986,28.213-39.341,56.428-78.682,84.642-118.022,56.418-78.667,112.719-157.42,169.072-236.135,2.545-3.552,4.628-11.662-1.15-13.646-39.826-13.675-79.554-27.8-119.541-41.059,21.848-6.023,43.736-11.896,65.609-17.836,5.118-1.39,18.878-15.128,8.185-18.628-25.975-8.502-51.95-17.004-77.938-25.467,44.168-6.555,88.573-9.755,133.459-9.525,3.789.019,9.63-4.236,11.912-8.664-5.452-4.836-10.885-9.808-16.374-14.767Z" style="fill: #ee9387; mix-blend-mode: screen; opacity: .61;"/>
          <path d="M766.409,1094.112c-5.414.956-17.246,14.214-7.684,17.488,27.335,9.359,54.711,18.603,82.087,27.841-22.852,5.924-45.718,11.794-68.68,17.285-6.161,1.473-20.891,16.707-9.199,20.938,46.685,16.892,94.034,32.073,141.148,47.752-87.536,123.794-174.989,247.647-262.49,371.465-33.936,48.02-77.643,106.063-138.186,120.349-65.266,15.401-111.13-36.899-137.5-89.489-30.531-60.88-57.715-125.415-78.316-190.329-22.481-70.834-34.335-145.56-20.393-219.342,5.598-29.626,14.958-60.196,11.224-90.663-1.643-13.405-5.909-25.9-13.179-37.299-9.219-14.448-21.599-27.505-20.994-45.824,1.275-38.646,41.266-56.432,74.31-59.47,35.429-3.256,72.231,1.899,107.605,4.267,82.713,5.537,165.424,11.662,247.552,23.209,65.106,9.153,128.711,23.273,192.143,39.32-3.277,4.243-4.325,9.669.544,11.916,11.405,5.265,22.811,10.529,34.219,15.795-44.992,2.043-89.884,6.975-134.21,14.792Z" style="fill: #dd2a1b;"/>
          <path d="M762.933,1177.664c-11.691-4.231,3.039-19.465,9.199-20.938,22.961-5.491,45.828-11.36,68.68-17.285-27.377-9.237-54.752-18.481-82.087-27.841-9.563-3.274,2.269-16.532,7.684-17.488,44.325-7.817,89.218-12.749,134.21-14.792-11.408-5.265-22.814-10.529-34.219-15.795-4.869-2.247-3.821-7.672-.544-11.916-63.432-16.047-127.037-30.167-192.143-39.32-82.129-11.548-164.84-17.672-247.552-23.209-35.374-2.368-72.176-7.523-107.605-4.267-33.044,3.038-73.035,20.824-74.31,59.47-.605,18.319,11.775,31.375,20.994,45.824,7.27,11.399,11.536,23.893,13.179,37.299,3.734,30.467-5.626,61.037-11.224,90.663-13.942,73.782-2.088,148.508,20.393,219.342,20.602,64.914,47.785,129.449,78.316,190.329,26.37,52.589,72.235,104.89,137.5,89.489,60.542-14.286,104.25-72.329,138.186-120.349,87.502-123.818,174.955-247.67,262.49-371.465-47.114-15.679-94.463-30.86-141.148-47.752ZM790.815,1303.579c-10.801,23.391-25.058,45.198-39.852,66.225-12.637,17.959-25.993,35.415-39.814,52.476-14.658,18.092-28.424,36.785-42.256,55.513-19.907,26.954-40.185,53.713-62.488,78.748-20.758,23.302-43.603,46.409-70.876,62.059-10.952,6.285-22.889,11.33-35.468,13.072-12.981,1.797-25.393-.549-37.125-6.322-31.043-15.275-49.189-48.202-57.604-80.518-4.146-15.918-6.258-32.508-5.851-48.963.517-21.019,6.303-41.225,8.615-62.019,1.202-10.815,1.384-22.011-1.905-32.498-3.058-9.753-9.216-18.376-16.722-25.218-14.382-13.107-32.851-20.91-46.708-34.662-14.904-14.794-26.905-34.523-30.859-55.286-3.669-19.262-.357-38.79,5.563-57.248,3.221-10.049,7.159-19.854,11.261-29.571,4.322-10.239,9.245-20.261,11.125-31.312,1.365-8.011.87-16.114-1.289-23.936-1.669-6.045-4.135-11.817-6.43-17.643-8.225-16.26-12.084-34.442-6.848-52.511,7.33-25.304,31.089-43.899,55.195-52.262,12.498-4.337,25.776-5.828,38.957-5.705,13.269.124,26.347,2.337,39.58,2.797,25.11.873,50.256.543,75.308,2.751,23.27,2.053,48.325,5.563,68.566,18.071,1.239.765.953,2.571-.395,3.016-27.295,9.009-58.411,11.141-81.962,29.001,6.931,8.889,16.632,15.04,26.907,19.451,21.88,9.396,46.038,12.509,69.112,17.701,21.605,4.862,44.598,11.126,61.218,26.602.711.662.538,1.655,0,2.333-5.352,6.728-13.244,11.49-20.559,15.776-23.166,13.574-48.137,23.876-71.905,36.321-11.776,6.168-23.469,12.714-34.185,20.617-8.093,5.967-16.39,13.093-20.82,22.325-3.915,8.162-2.771,16.795,2.163,24.243,7.448,11.244,20.174,17.636,33.048,20.404,15.555,3.344,31.949,2.227,47.552-.184,17.302-2.673,34.294-7.157,51.028-12.245,15.567-4.734,30.927-10.102,46.333-15.323,12.995-4.403,26.042-8.597,39.564-11.07,15.833-2.894,41.826-5.848,49.882,12.532,3.137,7.159,2.632,15.381,1.204,22.884-1.955,10.265-5.896,20.126-10.26,29.578Z" style="fill: #b21801;"/>
          <path d="M1446.499,1878.182c-15.628-36.937-35.96-72.205-54.3-107.843-88.501-171.971-176.157-344.416-265.163-516.117-5.677-10.953-20.48,1.593-22.003,9.38-15.154,77.49-46.324,150.455-92.115,214.394,3.867-27.246,7.922-54.468,11.79-81.712,1.708-12.028-12.016-6.472-16.312-1.356-7.752,9.233-15.434,18.523-23.148,27.787,12.708-43.514,19.254-88.258,19.115-134.041-.028-8.589-11.328-4.913-14.798-1.336-22.46,23.147-44.997,46.225-67.455,69.378-1.217.64-2.372,1.583-3.313,2.854-.594.8-1.178,1.609-1.77,2.409-19.466,20.09-38.872,40.235-58.091,60.557-6.735,7.123-2.309,14.618,4.233,13.042-31.88,43.942-63.518,88.065-95.198,132.143-25.623,35.65-51.246,71.3-76.869,106.95-22.801,31.722-47.786,62.758-67.681,96.422-15.716,26.593-30.3,58.595-24.207,90.243,5.903,30.654,30.725,46.926,55.311,62.488,63.473,40.177,127.564,80.071,195.698,111.96,67.72,31.695,139.889,52.845,214.918,55.655,82.069,3.073,163.383-12.485,243.316-29.251,54.523-11.437,124.059-24.659,147.185-83.243,13.097-33.183,4.214-69.194-9.141-100.763Z" style="fill: #ee9387; mix-blend-mode: screen; opacity: .61;"/>
          <path d="M1422.76,1999.003c-19.856,20.954-50.87,29.527-78.034,36.031-72.424,17.342-146.987,32.82-221.479,36.91-74.571,4.094-146.925-7.674-216.85-33.659-64.139-23.835-124.041-57.414-181.778-93.838-28.386-17.908-60.746-34.81-85.726-57.335-28.273-25.493-24.698-61.036-9.839-92.946,17.239-37.025,44.776-69.693,68.329-102.8,25.422-35.736,50.845-71.472,76.267-107.208,46.337-65.134,92.842-130.179,138.47-195.818,24.459-24.912,48.792-49.948,73.147-74.96-1.181,49.361-10.579,98.175-28.527,144.311-3.795,9.757,7.569,12.561,13.285,5.803,10.99-12.995,21.93-26.031,32.888-39.053-3.808,27.971-7.541,55.952-11.603,83.885-1.69,11.627,11.688,6.336,15.825,1.316,51.933-63.021,90.127-136.158,111.715-214.681,67.796,132.006,136.505,263.574,204.563,395.451,18.138,35.149,36.278,70.299,54.417,105.448,17.259,33.441,36.572,66.539,50.629,101.496,13.155,32.719,21.116,73.353-5.697,101.647Z" style="fill: #aa1728;"/>
          <path d="M1422.76,1999.003c-19.856,20.954-50.87,29.527-78.034,36.031-72.424,17.342-146.987,32.82-221.479,36.91-74.571,4.094-146.925-7.674-216.85-33.659-64.139-23.835-124.041-57.414-181.778-93.838-28.386-17.908-60.746-34.81-85.726-57.335-28.273-25.493-24.698-61.036-9.839-92.946,17.239-37.025,44.776-69.693,68.329-102.8,25.422-35.736,50.845-71.472,76.267-107.208,46.337-65.134,92.842-130.179,138.47-195.818,24.459-24.912,48.792-49.948,73.147-74.96-1.181,49.361-10.579,98.175-28.527,144.311-3.795,9.757,7.569,12.561,13.285,5.803,10.99-12.995,21.93-26.031,32.888-39.053-3.808,27.971-7.541,55.952-11.603,83.885-1.69,11.627,11.688,6.336,15.825,1.316,51.933-63.021,90.127-136.158,111.715-214.681,67.796,132.006,136.505,263.574,204.563,395.451,18.138,35.149,36.278,70.299,54.417,105.448,17.259,33.441,36.572,66.539,50.629,101.496,13.155,32.719,21.116,73.353-5.697,101.647Z" style="fill: #dd2a1b;"/>
          <path d="M1428.457,1897.357c-14.057-34.957-33.37-68.054-50.629-101.496-18.138-35.149-36.278-70.299-54.417-105.448-68.058-131.877-136.767-263.445-204.563-395.451-21.588,78.524-59.782,151.66-111.715,214.681-4.137,5.02-17.516,10.311-15.825-1.316,4.062-27.933,7.795-55.914,11.603-83.885-10.958,13.021-21.898,26.058-32.888,39.053-5.716,6.758-17.08,3.953-13.285-5.803,17.948-46.137,27.346-94.951,28.527-144.311-24.355,25.012-48.688,50.048-73.147,74.96-45.628,65.638-92.133,130.683-138.47,195.818-25.422,35.736-50.845,71.472-76.267,107.208-23.553,33.107-51.09,65.775-68.329,102.8-14.859,31.91-18.434,67.452,9.839,92.946,24.981,22.525,57.34,39.426,85.726,57.335,57.738,36.424,117.639,70.003,181.778,93.838,69.925,25.985,142.28,37.753,216.85,33.659,74.492-4.09,149.055-19.568,221.479-36.91,27.164-6.504,58.178-15.077,78.034-36.031,26.813-28.294,18.852-68.928,5.697-101.647ZM1331.274,1941.734c-3.153,11.568-9.249,22.402-18.402,30.27-9.09,7.814-20.435,12.255-32.246,13.818-15.046,1.991-30.738-.34-45.096-5.019-15.363-5.008-29.296-13.713-44.816-18.213-8.485-2.46-17.257-3.272-26.064-2.641-10.482.75-20.826,4.258-30.674,7.769-19.562,6.975-38.294,16.127-58.05,22.587-33.11,10.826-69.34,12.98-103.89,10.28-35.324-2.76-70.426-11.005-102.827-25.46-15.958-7.121-31.257-15.821-45.234-26.333-11.257-8.465-19.608-18.776-26.634-30.941-6.729-11.653-12.123-24.01-18.682-35.753-5.582-9.992-12.358-20.525-22.871-25.879-13.251-6.749-27.587-1.783-40.282,3.766-6.073,2.655-12.228,5.563-18.887,6.336-7.248.842-14.081-1.589-19.868-5.897-28.413-21.153-20.174-61.779-9.409-90.251,12.262-32.429,30.618-62.569,50.624-90.749,12.204-17.188,25.259-33.959,39.372-49.73,11.364-18.139,23.301-35.904,36.389-52.859,24.264-31.435,53.099-60.986,89.375-78.289.825-.394,1.759-.212,2.258.592,8.475,13.639,9.901,29.578,7.25,45.151-2.68,15.748-8.855,30.764-15.469,45.217-7.284,15.921-15.488,31.399-22.947,47.237-12.158,25.818-26.553,58.678-13.741,86.851,11.258-6.305,20.647-15.25,28.679-25.304,15.845-19.833,26.718-43.051,39.919-64.602,11.576-18.901,25.551-37.999,46.662-46.784.703-.293,1.479.221,1.864.758,7.113,9.936,12.16,21.144,16.593,32.48,3.778,9.663,6.698,19.903,11.526,29.117,1.205,2.295,2.809,5.532,5.344,6.64,2.379,1.039,4.605-.777,6.22-2.383,3.969-3.948,6.752-9.179,9.345-14.076,4.273-8.07,7.835-16.47,11.469-24.837,3.967-9.136,7.566-18.429,11.3-27.661,9.422-23.293,19.251-46.768,32.762-68.039,10.226-16.1,24.967-35.581,45.591-37.493,10.098-.935,19.628,3.311,27.529,9.281,12.229,9.239,23.012,19.608,32.659,31.541,21.703,26.843,38.128,57.672,53.435,88.47,7.177,14.441,14.06,29.025,21.145,43.511,8.95,18.296,18.056,36.5,26.576,55.004,18.569,40.326,35.288,81.625,47.935,124.216,6.281,21.152,11.544,42.622,15.377,64.356,2.55,14.449,2.77,29.705-1.109,43.947Z" style="fill: #b21801;"/>
          <path d="M949.339,1579.619c-4.322-9.049-16.185-4.051-21.365,1.094-8.137,8.078-15.068,17.063-20.837,26.642-32.254,26.934-33.384,86.269-17.878,121.073,2.972,6.667,11.536,4.738,16.338,1.56,47.949-31.733,68.809-97.888,43.742-150.369Z" style="fill: #fcb216;"/>
          <path d="M1093.177,1540.271c-6.847-11.578-21.994,1.424-24.023,10.24-4.51,19.601-6.042,39.368-4.693,58.957-.737,21.331,3.413,42.659,12.268,63.051,4.059,9.349,15.645-.768,18.356-5.642,21.185-38.101,20.304-89.052-1.908-126.608Z" style="fill: #fcb216;"/>
          <path d="M1205.674,1609.01c-5.568-11.441-22.318-.546-25.178,7.739-5.317,15.401-7.397,32.865-2.838,48.457,1.541,15.854,7.537,31.486,16.595,44.563,6.257,9.032,18.918-5.832,20.578-11.384,9.303-31.11,4.876-60.546-9.157-89.376Z" style="fill: #fcb216;"/>
          <path d="M1506.176,1465.467c-14.501-30.789-38.409-54.764-69.076-69.499-6.054-2.909-14.099,1.348-18.864,7.373-6.56,3.662-13.085,11.214-9.677,18.398,15.019,31.643,42.428,54.999,75.954,65.153,10.284,3.115,27.034-10.023,21.663-21.425Z" style="fill: #fcb216;"/>
          <path d="M1587.279,1340.676c-19.752-34.115-56.594-53.411-94.868-51.138-11.55-3.031-24.457-.599-34.709,7.408-3.946,3.08-8.868,8.895-6.462,14.374,20.781,47.344,77.808,65.687,124.689,49.131,5.935-2.096,15.457-12.683,11.35-19.776Z" style="fill: #fcb216;"/>
          <path d="M1608.552,1130.098c-20.185-18.291-50.984-4.392-60.936,18.025-1.318,2.969-2.268,8.48.862,10.866,8.778,6.69,18.92,12.463,30.314,9.687,10.36-2.525,22.478-13.499,20.765-25.165,5.834.378,13.836-9.024,8.994-13.413Z" style="fill: #fcb216;"/>
          <path d="M1676.84,1008.827c-46.184-12.663-94.927-2.724-132.954,26.391-6.641,5.085-15.626,21.607-1.574,23.56,5.129.713,10.224,1.055,15.277,1.083,42.132,10.089,85.464-2.487,118.056-31.835,3.817-3.438,10.08-16.763,1.195-19.199Z" style="fill: #fcb216;"/>
          <path d="M1810.691,1028.259c-14.181-15.021-37.765-14.353-50.995-.162-10.371,1.888-20.742,3.749-31.075,6.22-7.04,1.683-24.754,20.057-10.822,24.629,29.661,9.734,58.857,5.659,85.958-9.261,6.228-3.428,12.98-15.022,6.935-21.426Z" style="fill: #fcb216;"/>
          <path d="M1715.499,1229.007c-4.543-12.463-16.294-20.653-29.458-21.598-5.974-.43-12.838.831-18.784,3.671-7.776,1.558-15.282,4.907-21.873,10.2-3.708,2.978-9.862,9.689-6.785,15.094,13.915,24.455,47.541,26.754,68.826,10.593,5.27-4.002,10.641-10.916,8.074-17.96Z" style="fill: #fcb216;"/>
          <path d="M774.825,1252.312c-30.018,7.942-56.763,23.272-78.337,44.225-19.49,13.351-34.3,33.759-41.472,58.149-1.535,5.215,2.043,9.624,6.992,10.391,62.348,9.659,120.181-44.24,124.015-105.049.356-5.652-6.402-8.984-11.197-7.716Z" style="fill: #fcb216;"/>
          <path d="M691.919,1201.763c-16.508-8.312-35.137-10.877-51.626-3.48-17.466,1.274-34.101,9.241-45.941,23.067-4.858,5.675-8.718,15.929,1.436,18.157,32.084,7.039,63.237.941,91.656-14.938,6.921-3.868,14.182-17.919,4.475-22.806Z" style="fill: #fcb216;"/>
          <path d="M674.905,1086.453c-25.679-18.226-56.531-26.167-87.17-22.679-10.665.73-21.247,3.409-31.256,8.134-4.463,2.106-12.504,10.604-6.989,15.697,14.659,13.537,32.248,22.388,51.864,26.166,21.681,4.176,39.675-.555,60.713-4.708,6.551-1.293,22.303-15.89,12.837-22.61Z" style="fill: #fcb216;"/>
          <path d="M564.551,1154.903c-1.227-4.385-6.523-4.954-10.295-4.487-3.007.374-6.14,1.808-8.637,3.482-5.147,3.446-9.803,9.396-10.612,15.704-.708,5.521,1.483,11.384,7.368,12.796,6.861,1.646,15.513-2.172,18.022-8.993.058-.078.111-.152.155-.216,1.009-1.473,1.705-3.06,2.145-4.783.346-1.352.513-2.677.446-3.998,1.602-2.971,2.288-6.368,1.408-9.506Z" style="fill: #fcb216;"/>
          <path d="M683.889,638.487c-.902-1.169-1.853-2.304-2.781-3.455-17.136-26.263-40.5-46.985-69.931-58.549-.398-.157-.832-.219-1.25-.318-11.468-6.471-23.302-12.159-35.26-16.982-11.126-4.487-29.108,13.434-19.937,23.71,14.343,16.075,30.266,30.365,47.513,42.82,16.537,18.748,39.765,31.447,65.848,35.437,10.257,1.57,22.734-13.67,15.798-22.664Z" style="fill: #fcb216;"/>
          <path d="M732.083,555.012c-4.253-32.674-27.635-58.629-58.024-69.952-9.852-3.671-24.35,8.26-22.739,18.815,2.6,17.044,13.724,37.566,30.013,46.05,7.899,9.29,17.941,16.701,30.632,21.732,8.826,3.5,21.315-7.452,20.118-16.646Z" style="fill: #fcb216;"/>
          <path d="M879.817,469.64c-5.261-21.586-18.657-41.137-38.238-53.856-8.107-5.265-20.499,7.443-21.417,14.723-5.046,39.973,6.839,78.637,34.616,108.071,7.617,8.071,20.302-3.31,23.522-10.163,8.887-18.915,9.409-40.432,1.517-58.775Z" style="fill: #fcb216;"/>
          <path d="M978.746,451.71c-.741-.664-2.166-1.763-2.825-2.009-.991-.371-2.217-.612-3.279-.72-1.426-.145-2.818.091-4.183.465-.572-.064-1.144-.128-1.716-.192-3.712-.416-7.959,2.533-9.883,5.527-1.811,2.819-3.023,6.657-.589,9.495l.68.792c.303,1.364.839,2.634,1.855,3.763,1.744,1.939,3.615,2.262,6.05,2.806.89-.051,1.778-.104,2.666-.155,1.519-.257,2.92-.797,4.2-1.62,2.406-1.316,4.746-3.226,6.245-5.557,1.102-1.714,1.992-3.575,2.444-5.571.492-2.17.116-5.426-1.665-7.023Z" style="fill: #fcb216;"/>
          <path d="M629.155,806.726c-2.4-5.317-6.854-10.121-13.018-10.59-5.123-.39-10.082,1.672-13.911,5.045-.996.607-1.741,1.184-1.986,1.638-.132.075-.239.135-.385.22-1.065.734-2.03,1.576-2.894,2.528-1.814,1.885-3.674,4.278-4.756,6.672-1.482,3.281-2.023,6.968-2.178,10.529-.612,14.007,10.699,25.071,24.932,19.529,13.699-5.334,20.19-22.292,14.196-35.571Z" style="fill: #fcb216;"/>
          <path d="M1400.705,399.549c-4.024-8.197-14.274-3.462-19.1.977-6.417,5.903-12.261,12.235-17.599,18.887-25.663,22.248-38.375,57.421-36.839,91.524-.712,7.434-1.025,14.949-.814,22.533.261,9.324,11.432,7.717,16.621,4.275,3.986-2.644,7.806-5.489,11.47-8.493,45.134-23.039,69.342-82.691,46.262-129.703ZM1382.788,433.154c-2.345,1.301-4.601,2.751-6.737,4.353,1.861-2.664,3.851-5.249,5.904-7.793.308,1.144.584,2.29.833,3.44ZM1353.336,492.484c.494,2.342,1.194,4.661,2.075,6.95-1.11,1.387-2.264,2.745-3.458,4.075.328-3.704.756-7.388,1.382-11.025Z" style="fill: #fcb216;"/>
          <path d="M1500.378,518.755c-2.256-7.188-13.113-5.045-17.381-1.66-2.389,1.896-4.71,3.848-6.974,5.841-37.757,27.502-56.873,72.549-54.536,119.853.35,7.082,7.55,7.294,12.681,5.707,52.42-16.22,82.344-78.342,66.21-129.742Z" style="fill: #fcb216;"/>
          <path d="M1590.344,621.88c-6.075-4.662-13.706-4.093-20.542-1.455-.851.329-1.682.725-2.512,1.131-4.823,1.7-9.351,4.972-12.418,8.525-2.446,2.836-4.443,6.632-5.555,10.613-3.168,7.931-3.042,17.66,6.815,19.929.395.09.819.06,1.234.072.187.069.345.163.54.227,13.825,4.608,30.383-6.396,35.402-19.161,2.561-6.513,3.141-15.198-2.964-19.883Z" style="fill: #fcb216;"/>
          <path d="M1558.221,700.771c-10.639-3.817-21.249,6.281-23.382,16.134-.852,3.933-.406,8.753,1.498,12.353,3.217,6.08,8.472,9.326,15.475,6.687,4.73-1.782,9.029-6.211,10.53-10.944.11-.349.187-.716.268-1.079,2.463-1.012,4.276-3.38,4.981-5.892,1.867-6.672-2.886-14.932-9.37-17.259Z" style="fill: #fcb216;"/>
          <path d="M1280.119,1193.41c-49.977-36.108-100.354-71.657-150.431-107.624,34.382-36.24,74.826-65.427,120.49-86.286,6.519-2.978,19.254-22.212,4.474-22.806-45.271-1.819-89.749,6.163-131.502,23.089,9.484-49.333,18.672-98.718,27.831-148.115,1.322-7.129-3.715-11.493-10.558-10.675-7.796.932-13.707,8.535-15.698,15.526-8.954,31.449-25.211,59.572-47.326,83.171-62.747-76.79-132.742-147.707-210.411-209.441-9.245-7.347-28.676,7.936-22.544,18.534,26.273,45.409,59.462,87.853,99.786,121.636.947,1.335,1.939,2.635,2.871,3.984,19.84,28.772,33.9,59.427,48.997,90.276-28.725.966-57.938-.92-86.408-1.554-34.876-.778-69.76-1.466-104.635-2.355-6.402-.162-19.282,13.138-9.53,16.97,55.209,21.688,110.153,45.943,166.409,64.856-3.562,17.182,6.834,36.013,23.94,39.121-16.701,32.716-33.333,65.469-50.353,98.019-3.91,7.48,2.891,12.279,9.687,9.794,18.442-6.743,37.01-13.229,55.35-20.268-7.946,18.619-10.146,38.587-6.34,59.588,1.366,7.536,9.735,5.205,13.802,1.245,25.906-25.229,51.775-50.452,77.198-76.156,44.789,59.922,83.884,123.693,116.962,190.822,5.793,11.758,24.438-3.916,20.877-14.118-13.613-39.029-21.743-78.642-24.814-119.52,21.919,1.951,43.872,3.571,65.806,5.341,8.135.656,26.426-15.57,16.069-23.053Z" style="fill: #f0734b;"/>
          <path d="M1150.916,652.187c-7.966-12.938-25.752,1.183-27.801,11.851-7.653,39.862-3.674,79.768,11.005,117.208,1.54,5.259,3.293,10.466,5.275,15.594,4.713,12.216,22.32-.299,25.053-7.7,16.68-45.179,11.722-95.946-13.532-136.953Z" style="fill: #f5faf4; mix-blend-mode: screen; opacity: .85;"/>
          <path d="M1305.708,823.254c-.133.098-.277.21-.413.312-2.363-3.147-9.938-1.823-12.848,2.781-5.645,8.932-9.976,18.073-13.167,27.503-3.035,5.9-4.871,11.918-4.479,17.457-1.48,8.332-2.178,16.917-1.997,25.865.234,11.599,14.571,5.923,19.352,1.746,20.423-17.836,30.632-44.335,32.079-70.899.568-10.422-13.405-8.511-18.527-4.766Z" style="fill: #f5faf4; mix-blend-mode: screen; opacity: .85;"/>
          <path d="M587.14,704.164c-22.697-25.369-54.46-39.821-87.835-44.573-10.244-1.458-27.332,16.094-17.723,25.422,5.869,5.695,13.231,11.889,21.442,17.608,15.481,21.931,42.817,32.509,70.859,24.893,8.228-2.234,21.281-14.384,13.257-23.35Z" style="fill: #fbf287;"/>
          <path d="M634.596,611.012c-5.514-2.281-11.731,2.248-14.785,6.452-.49.675-.849,1.355-1.169,2.043-.134.041-.297.084-.438.119-.035,0-.074.003-.086-.002-.021.003-.029.004-.05.006h-.01c-.053.01-.232-.008-.409-.029-.199-.054-.53-.137-.611-.167-1.063-.399-.683-.093-1.31-.703-1.817-1.765-5.066.181-6.094,1.898-1.897,3.168-2.955,6.838-1.13,10.294,1.605,3.04,5.071,5.644,8.555,5.962,5.078.464,10.344-1.913,14.156-5.049,3.376-2.78,6.449-6.523,7.327-10.926.736-3.699-.097-8.306-3.946-9.897Z" style="fill: #fbf287;"/>
          <path d="M722.804,526.149c-.55-6.892-5.171-12.816-11.008-16.168-7.791-4.475-17.255-2.023-22.97,4.671-.04.047-.08.097-.121.145-9.751,3.211-15.743,14.984-12.315,24.661,1.91,5.384,7.03,9.987,12.291,11.994,15.914,6.07,35.497-8.058,34.122-25.304Z" style="fill: #fbf287;"/>
          <path d="M871.772,453.567c-.113-1.346-.899-2.851-2.247-3.355-2.539-.95-5.166.177-7.174,1.89-.964.391-1.903.859-2.792,1.345-4.519,2.471-7.45,6.657-8.53,11.632-.635,2.93.332,6.153,3.228,7.443,2.961,1.319,7.053.143,9.493-1.753,3.9-3.03,7.573-6.664,7.933-11.885.074-1.055.079-2.229-.158-3.317.185-.649.305-1.312.247-2Z" style="fill: #fbf287;"/>
          <path d="M1018.597,564.293c-7.242-9.295-24.049,5.428-24.666,13.646-1.709,22.806.44,53.289,15.404,72.665,2.108,5.405,4.47,10.683,6.954,15.766,4.394,8.993,17.511.42,19.78-6.08,11.613-33.247,3.959-68.49-17.472-95.997Z" style="fill: #fbf287;"/>
          <path d="M1383.348,442.725c-.28-1.12-.297-2.082-.243-3.531.107-2.881-3.017-4.12-5.377-3.707-3.118.545-6.093,3.165-7.292,6.048-.548,1.315-1.138,2.393-1.816,3.451-6.048,5.325-11.543,15.892-8.014,23.093,1.793,3.662,5.408,4.809,9.266,4.14,4.986-.864,8.584-4.255,11.65-8.005,3.935-4.813,7.323-16.514,1.826-21.49Z" style="fill: #fbf287;"/>
          <path d="M1477.484,578.775c-.654-1.533-1.746-2.635-3.271-3.307-1.148-.446-2.326-.559-3.518-.518-.144-.687-.415-1.322-.975-1.701-2.156-1.464-4.094-2.551-6.835-2.111-3.81.611-7.115,3.656-8.674,7.087-1.148,2.526-1.442,5.41-1.265,8.194-.675,2.319-.928,4.755.153,7.001.494,1.026,1.183,2.018,1.866,2.909.188.247.38.452.615.653,6.351,5.424,15.54-.184,19.524-5.926,1.366-1.966,2.272-4.002,2.783-6.33.537-2.449.153-3.627-.404-5.953Z" style="fill: #fbf287;"/>
          <path d="M1655.672,662.506c-.468-.534-1.024-.957-1.548-1.421,2.822-4.708,2.793-10.422-4.136-9.42-5.679.821-11.221,2.451-16.473,4.725-1.845.333-3.647.777-5.292,1.419-4.586,1.791-9.486,5.661-12.855,10.309-8.786,8.043-15.279,18.506-17.802,30.574-1.007,4.823,1.646,10.479,7.144,10.615,13.721.338,28.086-1.305,39.466-9.667,10.203-7.497,21.862-25.295,11.494-37.134Z" style="fill: #fbf287;"/>
          <path d="M571.542,1388.784c-21.318-1.938-43.783-.644-59.379,15.999-5.221,5.572-9.67,13.661-11.552,22.052-7.589,8.071-12.923,18.269-14.455,29.177-.671,4.79,1.354,9.485,6.683,9.929,40.447,3.369,75.839-28.463,86.45-65.646,1.568-5.496-2.138-11.001-7.747-11.511Z" style="fill: #fbf287;"/>
          <path d="M536.84,1315.141c-2.62-.98-5.098-.431-7.677.429-2.142.714-4.005,1.329-5.952,2.639-1.111.747-2.209,1.491-3.349,2.194-3.332,2.056-6.059,6.132-6.33,10.026-.104,1.496.114,2.776.948,4.034.886,1.339,2.558,2.548,4.278,2.471,1.147-.052,2.27-.032,3.416-.016,2.941.042,5.606-1.074,8.343-1.986,2.82-.94,5.835-3.8,7.47-6.181,1.438-2.09,2.925-5.4,2.573-8.052-.308-2.314-1.342-4.668-3.719-5.558Z" style="fill: #fbf287;"/>
          <path d="M648.283,1203.008c-4.976-.71-9.571.797-14.294,2.126-4.605,1.296-9.232,2.483-13.871,3.652-5.791,1.458-11.249,6.159-12.381,12.245-1.025,5.51,2.843,9.335,8.327,8.419,9.145-1.53,19.889-1.579,28.19-5.913,4.61-2.405,8.95-6.355,9.95-11.73.814-4.372-1.386-8.151-5.92-8.798Z" style="fill: #fbf287;"/>
          <path d="M1027.38,1737.953c-2.391-6.465-7.605-6.659-12.871-4.334-1.916-1.204-5.005-1.047-7.269,1.514-11.011,12.455-18.926,21.56-20.395,39.21-1.322,15.878,3.127,30.277,12.566,42.984,5.382,7.246,18.617-1.628,21.498-6.695,12.939-22.759,15.62-47.938,6.472-72.678Z" style="fill: #fbf287;"/>
          <path d="M838.606,1636.973c-.095-1.84-.772-3.432-2.026-4.777-1.331-1.269-2.915-1.962-4.754-2.079-.054-.012-.108-.025-.163-.038-2.09-.109-4.095.262-6.013,1.111-1.023.56-2.048,1.12-3.071,1.68-2.098,1.432-3.874,3.188-5.328,5.268-1.053,1.392-1.786,2.922-2.201,4.59-.584,1.42-.814,2.908-.689,4.464,0,1.423.438,2.66,1.315,3.709.597,1.201,1.554,2.047,2.867,2.539,1.802.7,3.652.853,5.55.458.588-.112,1.162-.281,1.723-.506,1.667-.396,3.2-1.11,4.6-2.144.963-.795,1.928-1.589,2.894-2.383.042-.048.084-.096.126-.145.819-.945,1.871-2.01,2.438-2.891l1.636-2.914c.831-1.822,1.206-3.73,1.123-5.725-.008-.072-.018-.146-.026-.218Z" style="fill: #fbf287;"/>
          <path d="M927.337,1621.162c-.585-1.331-.802-2.833-1.139-4.248-.422-1.777-2.553-2.94-4.12-3.316-2.032-.488-4.254-.204-6.168.67-4.454,2.035-8.341,6.113-9.34,11.014-.202.993-.406,1.986-.609,2.979-.077.385-.093.524-.087.579-.445,1.313-.939,2.62-1.254,3.969-.359,1.544-.204,3.468-.204,5.1,0,2.61,1.878,5.252,4.211,6.292,2.583,1.149,6.219.645,8.692-.486,6.309-2.883,11.369-8.976,11.369-16.112,0-2.325-.425-4.334-1.349-6.441Z" style="fill: #fbf287;"/>
          <path d="M1455.342,1423.739c-5.362-8.537-13.112-14.303-21.628-19.447-3.005-1.815-7.731,1.015-9.79,3.051-2.595,2.567-4.185,6.147-3.158,9.756,2.525,8.888,5.867,18.078,12.107,25.113,4.216,4.754,12.199,1.154,16.016-1.989,3.812-3.138,9.808-11.144,6.454-16.484Z" style="fill: #fbf287;"/>
          <path d="M1557.839,1299.398c-6.416-7.362-18.952-7.672-28.183-9.17-10.741-1.744-21.213-4.359-31.903-1.233-3.394.993-10.333,6.188-7.503,10.662,5.414,8.559,14.578,11.015,23.661,14.606,10.193,4.03,20.47,9.152,31.504,7.018,8.128-1.571,19.55-13.71,12.424-21.883Z" style="fill: #fbf287;"/>
          <path d="M1656.29,1017.866c-.675-1.357-1.754-2.313-3.238-2.869-.248-.063-.498-.125-.746-.188-.962-.231-1.922-.462-2.884-.692-1.711-.155-3.352.08-4.923.705-1.226.249-2.356.729-3.387,1.442-1.843.871-3.472,2.056-4.889,3.558-.89,1.056-1.78,2.112-2.669,3.168-.628,1.121-1.257,2.242-1.887,3.363-.796,1.588-1.19,3.252-1.185,4.993-.262,1.535-.079,3.037.549,4.504.062.247.123.494.185.742.54,1.49,1.484,2.579,2.833,3.27,1.175,1.004,2.565,1.515,4.176,1.534.063,0,.124,0,.186-.001,2.338.123,4.582-.292,6.728-1.243,2.515-1.097,4.743-2.615,6.688-4.556,1.963-1.923,3.505-4.136,4.63-6.639.974-2.135,1.415-4.373,1.318-6.714v-.184c0-1.61-.494-3.006-1.486-4.192Z" style="fill: #fbf287;"/>
          <path d="M1753.829,1128.671c-.039-.059-.107-.143-.183-.236,0-.066.005-.113-.005-.208-.137-1.598-.763-2.745-1.602-4.027-1.007-1.539-1.788-3.026-3.322-4.066-2.189-1.484-5.279-1.644-7.797-.899-3.661,1.083-6.484,2.681-8.972,5.636-1.999,2.375-4.114,5.871-3.584,9.167.405,2.525,1.17,4.801,3.37,6.293,1.803,1.222,3.799,1.348,5.905,1.368,1.576.014,3.217.084,4.765-.224.512-.157,1.025-.313,1.536-.469.378-.001,1.1-.061,1.329-.057,5.702.084,12.178-6.833,8.559-12.277Z" style="fill: #fbf287;"/>
          <path d="M201.725,643.445c-10.275,26.16-23.049,51.228-33.291,77.443-9.8,25.082-17.888,51.006-24.955,76.982-14.781,54.332-25.923,109.766-32.703,165.68-13.231,109.148-12.19,220.205,5.664,328.724,9.851,59.876,25.029,119.396,43.401,177.209,1.188,3.737,7.129-1.172,6.38-4.314-50.02-209.561-48.505-433.36-3.021-643.538,6.381-29.49,13.739-58.791,21.46-87.955,7.887-29.793,13.884-60.846,25.167-89.574,2.513-6.398-6.261-5.344-8.102-.657Z" style="fill: #f0bc83; mix-blend-mode: screen; opacity: .93;"/>
          <path d="M495.357,1897.074c-42.642-39.786-83.842-80.876-123.403-123.744-39.402-42.696-72.992-90.331-112.372-132.895-3.479-3.761-10.463,3.31-8.838,7.267,22.322,54.352,61.151,103.066,100.221,146.387,39.561,43.865,85.551,82.029,135.486,113.576,4.583,2.895,13.185-6.6,8.907-10.591Z" style="fill: #f0bc83; mix-blend-mode: screen; opacity: .93;"/>
          <path d="M2198.248,992.014c-2.27-58.883-9.794-118.168-23.556-175.505-6.907-28.777-15.092-57.613-25.747-85.236-11.029-28.592-26.034-55.055-38.234-83.1-2.731-6.272-13.535,2.052-11.224,7.589,11.411,27.346,17.676,56.596,25.187,85.195,7.687,29.268,15.065,58.553,21.089,88.213,11.592,57.089,19.508,114.495,22.267,172.724,5.549,117.149-13.401,230.477-39.826,344.119-2.423,10.427,12.213,5.115,14.695-.845,45.923-110.32,59.932-234.376,55.348-353.153Z" style="fill: #f0bc83; mix-blend-mode: screen; opacity: .93;"/>
          <path d="M2061.606,1550.854c-11.799,22.701-27.747,44.288-41.156,66.165-11.981,19.546-24.528,38.808-37.434,57.757-27.42,40.258-57.681,78.531-90.417,114.596-65.398,72.043-140.268,132.641-219.203,189.074-5.658,4.045-6.769,17.55,2.864,12.517,88.783-46.378,167.52-112.969,234.592-186.888,34.14-37.627,65.541-77.787,93.827-119.992,13.444-20.062,25.82-40.712,37.513-61.837,12.647-22.846,20.757-46.854,31.434-70.417,4.296-9.481-8.749-7.27-12.02-.975Z" style="fill: #f0bc83; mix-blend-mode: screen; opacity: .93;"/>
          <path d="M1525.132,153.595c-68.495-32.143-148.147-43.083-222.812-50.506-38.444-3.822-77.173-5.312-115.804-4.751-39.687.576-77.758,6.429-116.875,12.093-5.837.845-13.463,14.887-4.6,14.47,36.227-1.704,73.226.337,109.521.746,38.439.433,76.811,2.707,115.072,6.418,76.435,7.416,150.242,26.776,225.884,38.647,7.182,1.128,18.628-12.888,9.614-17.118Z" style="fill: #f0bc83; mix-blend-mode: screen; opacity: .93;"/>
          <path d="M970.465,324.519c-13.067-14.01-29.335-26.22-47.437-32.839-20.876-7.633-39.17-4.75-60.577-3.278-4.995.343-10.46,11.759-3.65,11.485,15.845-.639,33.876,8.491,47.634,15.755,14.759,7.789,28.294,17.458,39.718,29.677,23.595,25.237,32.714,56.696,40.151,89.49,1.5,6.618,9.723,2.191,11.414-2.11,15.082-38.378-.298-79.284-27.253-108.181Z" style="fill: #e77180; mix-blend-mode: screen;"/>
          <path d="M453.425,785.73c-25.371-9.149-48.965-17.066-66.359-39.189-17.106-21.757-25.971-50.809-19.109-78.092,1.873-7.44-8.402-3.194-10.244.589-14.791,30.393-10.621,64.614,8.572,92.202,18.706,26.891,50.161,46.556,83.379,36.263,3.529-1.093,9.481-9.711,3.761-11.774Z" style="fill: #e77180; mix-blend-mode: screen;"/>
          <path d="M329.796,1063.091c-.807-7.103-11.182-1.294-11.525,3.523-2.015,28.332-5.665,56.145-5.554,84.614.096,24.909-2.286,55.474,8.664,78.572,2.274,4.796,9.47.255,10.59-3.254,16.516-51.759,3.772-111.05-2.175-163.455Z" style="fill: #e77180; mix-blend-mode: screen;"/>
          <path d="M446.632,1600.795c-68.176-37.761-27.492-114.736-27.637-174.363-.132-54.856-38.683-103.809-93.591-111.767-4.709-.683-11.633,7.824-6.121,10.898,24.282,13.541,48.004,34.434,61.835,58.803,17.563,30.948,19.365,61.899,15.436,96.722-3.133,27.781-7.729,55.811,1.052,83.044,6.783,21.035,21.168,41.704,44.343,45,3.594.512,8.913-5.993,4.683-8.336Z" style="fill: #e77180; mix-blend-mode: screen;"/>
          <path d="M535.797,1581.156c-1.176-2.591-4.504-2.878-6.845-1.761-8.26,3.944-15.455,8.933-22.882,14.238-3.246,2.32-6.931,7.126-5.105,11.358,1.823,4.226,7.274,2.956,10.244.978,7.759-5.164,15.131-10.263,21.948-16.655,1.934-1.814,3.875-5.444,2.641-8.158Z" style="fill: #e77180; mix-blend-mode: screen;"/>
          <path d="M778.28,1661.589c-37.974,14.083-66.857,43.421-81.931,80.928-13.023,32.402-21.164,87.443,7.89,113.791,6.824,6.189,19.171-4.63,18.075-12.306-2.272-15.902-7.807-31.076-9.375-47.067-1.575-16.071.206-32.307,4.369-47.888,8.737-32.697,30.903-63.094,61.635-77.986,5.029-2.437,7.08-12.345-.663-9.473Z" style="fill: #e77180; mix-blend-mode: screen;"/>
          <path d="M1294.25,1804.045c-10.867-32.7-31.347-60.721-59.196-80.845-4.834-3.493-12.739,4.205-9.192,9.09,18.438,25.385,32.821,53.65,41.999,83.645,4.515,14.756,7.15,29.824,8.334,45.205,1.145,14.86-2.201,30.631.658,45.129,2.644,13.404,18.952,3.766,22.368-4.132,12.682-29.326,4.737-68.878-4.972-98.092Z" style="fill: #e77180; mix-blend-mode: screen;"/>
          <path d="M1125.55,1927.159c-9.81-11.986-32.011-10.646-45.924-8.506-17.085,2.625-32.244,10.989-45.552,21.728-6.861,5.535-4.662,17.73,4.597,11.038,11.383-8.228,24.747-11.524,38.717-11.257,12.084.231,22.987,6.178,34.818,6.136,8.074-.03,20.057-10.936,13.344-19.139Z" style="fill: #e77180; mix-blend-mode: screen;"/>
          <path d="M1639.543,1618.546c-30.671-9.526-62.52-12.538-92.456-25.066-30.219-12.646-63.958-29.651-85.258-55.032-4.25-5.063-14.826,5.113-10.448,10.332,23.427,27.916,44.943,53.295,78.381,69.723,32.168,15.804,67.541,24.982,102.712,16.129,4.462-1.124,16.272-13.228,7.068-16.086Z" style="fill: #e77180; mix-blend-mode: screen;"/>
          <path d="M1950.332,1441.851c-17.11,13.676-28.98,33.079-45.037,48.068-16.81,15.694-36.067,29.013-56.617,39.33-20.44,10.262-42.094,17.933-64.459,22.703-23.3,4.969-49.425,11.201-73.315,9.396-4.725-.356-10.528,8.997-4.241,9.688,25.15,2.767,47.966,6.935,73.352,2.34,25.865-4.682,51.158-13.357,74.519-25.373,22.562-11.606,43.466-25.914,62.309-42.918,16.819-15.177,39.007-35.552,43.63-58.698,1.269-6.359-5.956-7.882-10.142-4.536Z" style="fill: #e77180; mix-blend-mode: screen;"/>
          <path d="M1916.873,1076.158c5.037-5.731,1.862-15.265-6.174-9.353-29.672,21.829-49.243,54.229-56.059,90.415-6.361,33.753-4.431,77.3,19.276,104.218,8.308,9.433,23.361-8.016,20.612-16.946-9.065-29.427-18.464-56.295-14.084-87.66,4.146-29.68,16.598-58.11,36.429-80.673Z" style="fill: #e77180; mix-blend-mode: screen;"/>
          <path d="M1997.311,872.728c-.389,22.379-19.133,33.652-33.323,47.546-5.304,5.194-6.764,17.214,3.723,15.7,31.737-4.581,42.832-42.12,43.3-69.063.148-8.56-13.581-.926-13.699,5.817Z" style="fill: #e77180; mix-blend-mode: screen;"/>
          <path d="M1351.612,305.811c-9.63,26.255-25.028,54.755-29.069,82.497-2.217,15.219,16.563,6.531,20.389-1.173,12.341-24.837,16.654-55.554,24.088-82.21,2.913-10.451-12.95-5.811-15.408.886Z" style="fill: #e77180; mix-blend-mode: screen;"/>
          <path d="M1778.61,568.987c-8.869,2.433-15.128,10.171-21.428,16.479-7.256,7.267-16.007,14.303-16.311,25.32-.12,4.359,4.884,7.075,8.733,6.018,11.085-3.045,16.593-12.146,22.876-20.997,4.826-6.802,11.629-14.179,11.867-22.867.077-2.865-3.207-4.647-5.737-3.953Z" style="fill: #e77180; mix-blend-mode: screen;"/>
          <path d="M1661.183,469.335c-19.369,3.092-39.497.818-55.543-11.288-6.607-4.986-16.988,5.694-12.485,12.349,13.936,20.598,38.396,31.868,62.92,24.974,7.2-2.025,14.27-7.628,15.599-15.428,1.188-6.978-3.504-11.723-10.49-10.607Z" style="fill: #e77180; mix-blend-mode: screen;"/>
        </g>
      </g>
    </g>
  </g>
</svg>